/* XPM */
static char *tile0081719851910[] = {
/* columns rows colors chars-per-pixel */
"32 32 19 1 ",
"  c #FF00FF00",
". c #4E4E4E",
"X c #6D6F7D",
"o c #73747B",
"O c #7E7E7E",
"+ c #919090",
"@ c #93949E",
"# c #97989C",
"$ c #9B9B9B",
"% c #9597A1",
"& c #A9AAB0",
"* c #AEAFB6",
"= c #B8B9BB",
"- c #BABBC0",
"; c gray79",
": c #D0D0D0",
"> c #D2D1D1",
", c gray84",
"< c gray87",
/* pixels */
"                                ",
"           ..OOOO$$...          ",
"         ...#==OOO%%%..         ",
"        ..o#::,==+.XXX..        ",
"       ..o:::::,:o..%%%.        ",
"       .o:::##o;;;o.XXXOO       ",
"      .O:::#*%%o;;;..%**O       ",
"      O#:##*%%%%oo;oO@@@..      ",
"     OO#:**%%%<%%%;#OO*%%.      ",
"     O#:#*%%oo<%%%#:#OXXX.      ",
"     O::o%%oo<<o%*#:;.%%%.      ",
"     O:;%%%<<;%<<**;;.XX@$$     ",
"    OO;;%%o;;;::<#%;;..*--$     ",
"    Oo;o%%ooo####o%o;oO@&&$     ",
"    .o;o%%oo#<::oo%o:#O*--$     ",
"    .o;o%oo#<<;;oo%#:#O@@&$     ",
"    .o;o%###<%;%oo*#:#O***$     ",
"    .o;o*###%o;o#**#:#O@@@O     ",
"    .o;#*##oo<;##**#:#O***O     ",
"    ..::*ooo<<:*##*::OO@@@O     ",
"     O::%ooo<<::##*::O***O.     ",
"     O:;ooo#<<<:###::O@@@.      ",
"     Oo;oo##<<#:###:#O**%.      ",
"     ..o:**##<<<**:#OOXXX.      ",
"      .#:##*#***##:#O%%%..      ",
"      OO:::#***#:::O.XXX.       ",
"       O#:::###:::o.%%%..       ",
"       OO#:::::::o..XXX.        ",
"        OO##:::#o..%%%..        ",
"         OOO##o...XXX..         ",
"           OO.........          ",
"                                "
};
