/* XPM */
static char *tile0101719851911[] = {
/* columns rows colors chars-per-pixel */
"32 32 16 1 ",
"  c #FF00FF00",
". c #4E4E4E",
"X c #6D6F7D",
"o c #73747B",
"O c #7E7E7E",
"+ c #919090",
"@ c #93949E",
"# c #97989C",
"$ c #9597A1",
"% c gray67",
"& c #AEAFB6",
"* c gray79",
"= c #D0D0D0",
"- c #D2D1D1",
"; c gray84",
": c gray87",
/* pixels */
"                                ",
"            ........O           ",
"          ......ooo#%%O         ",
"        ......oo**===;%%+       ",
"       ..$..oo***=====;=..      ",
"      ..X..o***o#####****..     ",
"     ..$..o***#&&&&&$o****..    ",
"     .XX.o**o#&&&&&$$$oo***O    ",
"    ..$..o*o&&&&&&$$$$$$o*=OO   ",
"    .XX.o*o&&&&&&$$$$$$$$#==O   ",
"   ..$..o*#&&&&:*$***$$$&#=*..  ",
"   .XX.o*#&&&&:*$:::::$&&&o**.  ",
"  ..$..#=#&&&*:$$*:**:&&&$o**.O ",
"  .XX.#=#&&&$:*:$$$$===&$$$o*=O ",
"  .$$O#=#&&$$**$$::&&=&*$$$#==O ",
"  .X@O#=#&$$::*$:$&=&$$*$$&#==O ",
"  .&&O#=o$$$*:oo&&==oo*:$&&#==O ",
"  .@@O#*o$$$oo*##==oo:::&&&#==O ",
"  .&&Oo*o$$$o:=:##oo*::#&&&#==O ",
"  .O@..o*o$$o#=::::o:=##&&#==OO ",
"   O$$.o*o$&&##****#==##&&#==O  ",
"   ..X..o*#&&&o***###=#&&#==OO  ",
"    .$$.o=#&&$$oo#####&&&#==O   ",
"    ..X.O#=o$$$######&&&#==OO   ",
"     .&&O#**oo&&&&&&&&##===O    ",
"     OO@O.o**=#&&&&&&#====O.    ",
"      OO$..#===######====..     ",
"       ..XOO##==========..      ",
"        .OOOOO##======O..       ",
"          OOOOOO####O..         ",
"            OOOOOOOO.           ",
"                                "
};
