/* XPM */
static char *tile0091719851910[] = {
/* columns rows colors chars-per-pixel */
"32 32 12 1 ",
"  c #FF00FF00",
". c #4E4E4E",
"X c #6D6F7D",
"o c #73747B",
"O c #7E7E7E",
"+ c #93949E",
"@ c #97989C",
"# c #9597A1",
"$ c #AEAFB6",
"% c gray79",
"& c #D0D0D0",
"* c gray87",
/* pixels */
"                                ",
"          ...........           ",
"         ..###...ooo..O         ",
"        ..XXX..oo%%%o@OO        ",
"        .###..o%%%%%&&@OO       ",
"       ..XXX.o%%%oo@&&&@.       ",
"       .###..%%%o$$$@&&%..      ",
"      ..XXX.o%oo$$$$$@o%o.      ",
"      .###..o%#$$$$$$##%o..     ",
"      .XXX.o%o$$$$$$###o%o.     ",
"      .###.%%@$$*&#%###o%%.     ",
"     ..XXX.%&$$$*#***###%%O     ",
"     .###.O&&$$&%#%%*###&&OO    ",
"     .XXXO@&@$$*%###%%#$@&@.    ",
"     .##$O@&@$#%*#*#%#&$@&o.    ",
"     .X++O@&@#**#*#%#$&$o%o.    ",
"     .$$$O@%o#%**##&@&*#o%o.    ",
"     .+++Oo%o#oo*o&@***#o%@O    ",
"     .$$$.o%o#o**@@@**o#o&@O    ",
"     .++X..%%#oo&**o%oo#&&OO    ",
"     .O###.%%#$@&&%o%o@$&&O     ",
"      .XXX.%%@$$@%%o%@$@&&O     ",
"      .###.o&@$$oooo@$$@&@O     ",
"      .XXX.O@&###o@@$$$&@OO     ",
"      ..#$$O@%oo#$$$$@@&@O      ",
"       .+++O.%%%@$$$@&&&OO      ",
"       OO$$#.o&&&@@@&&&@O       ",
"        OXXX.O@&&&&&&&@OO       ",
"        ..##$OO@@&&&@@OO        ",
"         .O+++OOO@@@OOO         ",
"          OOOOOOOOOOO           ",
"                                "
};
