/* XPM */
static char *tile0061719851910[] = {
/* columns rows colors chars-per-pixel */
"32 32 17 1 ",
"  c #FF00FF00",
". c #4E4E4E",
"X c #73747B",
"o c #7E7E7E",
"O c #97989C",
"+ c #9B9B9B",
"@ c #9597A1",
"# c #A4A4A8",
"$ c #ABACAF",
"% c #AEAFB6",
"& c #B8B9BB",
"* c gray79",
"= c #D0D0D0",
"- c gray82",
"; c #D2D1D1",
": c gray84",
"> c gray87",
/* pixels */
"                                ",
"            .....ooo            ",
"         ....XXXO&&ooo.         ",
"        ..XXX**===:&&#..        ",
"      ...X****=====:=*X...      ",
"     ..XX****OOOOOX****XX..     ",
"    ..X****OO%%%%@@XX****Xoo    ",
"    .X***XO%%%%%@@@@@XX*==Oo    ",
"   ..X**X%%%%%%@*>@@@@@O==O..   ",
"  ..X**X%%%%%%XX*>X@@@%%O=*X..  ",
"  .X***O%%%%X>X>*>>X>%%%X***X.  ",
"  .X**O%%%%X>@>*@@*>%>%@@X**O+  ",
" ..X==O%%%XX******===>X@@X*=%++ ",
" .X==O%%%@XXXXXXXOOOOXXX@@O==$+ ",
" .O==O%%@@XXXXX>====XXXX%%O==$+ ",
" oO==O%@@XXXXX>>==***XXO%%O==$+ ",
" oO==X@@@XXXX>>%%**@@XO%%%O==O+ ",
" oO=*X@@XXX*O>%OX**XOO%%%%O==Oo ",
" oO**X@@XXX=O>O>X**O=O%%%%O==Oo ",
" o.X**X@XXO>O>>>@*=%=OO%%O==Ooo ",
"  .X**X@OOOOX>>>>====OO%%O==Oo  ",
"  .X***O%OOXX>>>>>===OO%O===O.  ",
"  ..X*=O%OXXXX>>>OO=OOO%O==O..  ",
"   ..O==X@@XOOO>>>>>O%%O==X..   ",
"    oO=**XX%%OO%%%%%%OO==*X.    ",
"    ooX***=OO%%%%%%OO===*X..    ",
"     ..XO====OOOOOO===*XX..     ",
"      .ooO===========*X...      ",
"        ooOOO======OXX..        ",
"         ooooOOOOOX....         ",
"            ooooo...            ",
"                                "
};
