/* XPM */
static char *_73643e1f9a947509912281cce229170KQaWEJotTfXaj0cq[] = {
/* columns rows colors chars-per-pixel */
"32 32 5 1 ",
"  c #72751B",
". c #7F8226",
"X c #787B21",
"o c #656C17",
"O c white",
/* pixels */
"                                ",
"                                ",
"                                ",
"                                ",
"                                ",
"                                ",
"                      ..        ",
"                       .X    .  ",
"                       XXX X.   ",
"                    .XXoXXXXo   ",
"                     XXXooXXo   ",
"                     oXX  Xo    ",
"                      oX        ",
"                                ",
"                                ",
"                                ",
"                                ",
"                                ",
"                                ",
"                                ",
"                                ",
"                                ",
"                                ",
"                                ",
"                                ",
"                                ",
"                                ",
"                                ",
"                                ",
"                                ",
"                                ",
"                                "
};
