/* XPM */
static char *result[] = {
/* columns rows colors chars-per-pixel */
"32 32 124 2 ",
"   c #FF00FF00",
".  c #7808FA",
"X  c #7A09FA",
"o  c #7B09FA",
"O  c #7C09FB",
"+  c #7C0AFA",
"@  c #7D0BFA",
"#  c #7E0BFA",
"$  c #7F0CFA",
"%  c #800CFA",
"&  c #810DFA",
"*  c #830EFA",
"=  c #830FFA",
"-  c #840FFA",
";  c #8C1AF5",
":  c #8E1CF5",
">  c #8A11FB",
",  c #8B11FB",
"<  c #8912FA",
"1  c #8A12FB",
"2  c #9518FB",
"3  c #9719FB",
"4  c #9D1CFB",
"5  c #A11FFB",
"6  c #A320FB",
"7  c #A420FB",
"8  c #A622FB",
"9  c #A722FB",
"0  c #A723FB",
"q  c #A620FC",
"w  c #A720FC",
"e  c #A823FB",
"r  c #AA24FB",
"t  c #AC25FB",
"y  c #AC26FA",
"u  c #AD26FB",
"i  c #AE26FB",
"p  c #AE27FB",
"a  c #AF27FB",
"s  c #AE29F9",
"d  c #AF2AF9",
"f  c #AE28FA",
"g  c #B027FB",
"h  c #B227FD",
"j  c #B12BF9",
"k  c #B22BF9",
"l  c #B128FB",
"z  c #B52DF9",
"x  c #B429FC",
"c  c #B52AFC",
"v  c #B72CFC",
"b  c #B92DFC",
"n  c #BA2DFC",
"m  c #BC2EFC",
"M  c #BE2FFC",
"N  c #B531F6",
"B  c #B733F6",
"V  c #C936FC",
"C  c #CC37FC",
"Z  c #CA38FA",
"A  c #CE3DF9",
"S  c #D03CFA",
"D  c #D43EFB",
"F  c #D63EFB",
"G  c #D13AFD",
"H  c #D23AFD",
"J  c #D43BFD",
"K  c #D53CFD",
"L  c #D63CFD",
"P  c #D83EFD",
"I  c #DB3FFD",
"U  c #EA75DE",
"Y  c #EB76DE",
"T  c #F179DE",
"R  c #F27ADE",
"E  c #F57CDD",
"W  c #F57DDD",
"Q  c #F87DDE",
"!  c #C748EF",
"~  c #C848EF",
"^  c #C94AEE",
"/  c #CE59E5",
"(  c #DC42FB",
")  c #DD43FB",
"_  c #DF44FB",
"`  c #DE45FB",
"'  c #DB40FD",
"]  c #DC41FC",
"[  c #DC40FD",
"{  c #DD40FD",
"}  c #DC42FC",
"|  c #DD43FC",
" . c #E95CEE",
".. c #E14CF6",
"X. c #E14DF6",
"o. c #E047F9",
"O. c #DB61E5",
"+. c #EC60EE",
"@. c #F06EE5",
"#. c #F06CE6",
"$. c #F16EE6",
"%. c #F06FE6",
"&. c #F472E5",
"*. c #FA8BD7",
"=. c #FD8BD7",
"-. c #FE8AD7",
";. c #FE8BD7",
":. c #FD8CD7",
">. c #FF8DD6",
",. c #FE8CD7",
"<. c #FE8DD7",
"1. c #F984D9",
"2. c #F985D9",
"3. c #FB84DB",
"4. c #FC86D9",
"5. c #FC87D9",
"6. c #FA82DC",
"7. c #FC88D8",
"8. c #FD88D8",
"9. c #FC89D8",
"0. c #FD89D8",
"q. c #FC88D9",
"w. c #FD8AD8",
"e. c #FF00FF00",
/* pixels */
"e.e.e.e.e.e.e.e.e.e.e.e.e.e.e.e.e.e.e.e.e.e.e.e.e.e.e.e.e.e.e.e.",
"e.e.e.e.e.e.e.e.e.e.e.e.e.e.e.e.e.e.e.e.e.e.e.e.e.e.e.e.e.e.e.e.",
"e.e.e.e.e.e.e.e.e.e.e.e.e.e.e.e.e.e.e.e.e.e.e.e.e.e.e.e.e.e.e.e.",
"e.e.e.e.e.e.e.e.e.e.e.e.e.e.e.e.e.e.e.e.e.e.e.e.e.e.e.e.e.e.e.e.",
"e.e.e.e.e.e.e.e.e.e.e.e.e.e.e.e.e.e.e.e.e.e.e.e.e.e.e.e.e.e.e.e.",
"e.e.e.e.e.e.e.e.e.e.e.e.e.e.e.e.e.e.e.e.e.e.e.e.e.e.e.e.e.e.e.e.",
"e.e.e.e.e.e.e.e.e.e.e.e.e.e.e.e.e.e.e.e.e.e.e.e.e.e.e.e.e.e.e.e.",
"e.e.e.e.e.e.e.e.e.e.e.e.e.e.e.e.e.e.e.e.e.e.e.e.e.e.e.e.e.e.e.e.",
"e.e.e.e.e.e.e.e.e.e.e.e.e.e.e.e.e.e.e.e.e.e.e.e.e.e.e.e.e.e.e.e.",
"e.e.e.e.e.e.e.e.e.e.e.e.e.e.e.e.e.e.e.X e.e.e.e.e.e.e.e.e.e.e.e.",
"e.e.e.e.e.e.e.e.e.e.e.e.e.e.e.e.e.e.e.e.e.e.e.e.e.e.e.e.e.e.e.e.",
"e.e.e.e.e.e.e.e.e.e.e.e.e.e.e.e.e.e.e.e.e.e.e.e.e.e.e.e.e.e.e.e.",
"e.e.e.e.e.e.e.e.e.e.e.e.X X + e.@ e.e.e.e.e.e.e.e.e.e.e.e.e.e.e.",
"e.e.e.e.e.e.e.e.e.e.e.e.X e.e.9 9 e.e.e.e.e.e.e.e.e.e.e.e.e.e.e.",
"e.e.e.e.e.e.e.e.e.e.e.e.e.e.e.* 6 e.e.e.e.e.e.e.e.e.e.e.e.e.e.e.",
"e.e.e.e.e.e.e.e.e.e.e.e.e.e.e.X e.e.e.e.e.e.e.e.e.e.e.e.e.e.e.e.",
"e.e.e.e.e.e.e.e.e.e.e.e.e.e.e.e.e.e.e.e.e.e.e.e.e.e.e.e.e.e.e.e.",
"e.e.e.e.e.e.e.e.e.e.e.e.e.e.e.e.e.e.e.e.e.e.e.e.e.e.e.e.e.e.e.e.",
"e.e.e.e.e.e.e.e.e.e.e.e.e.e.e.e.e.e.e.e.e.e.e.r e.e.e.e.e.e.e.e.",
"e.e.e.e.e.e.e.e.e.e.e.e.X X X X e.e.e.e.e.e.e.r e.e.e.e.e.e.e.e.",
"e.e.e.e.e.e.e.e.e.e.e.% $ # + X + e.e.e.e.e.e.e.e.e.e.e.e.e.e.e.",
"e.e.e.e.e.e.e.e.e.9 n L L m 2 & 5 t u u e.e.e.e.e.e.e.e.e.e.e.e.",
"e.e.e.e.e.e.e.e.e.7 b I I [ c - 8 V I H l e.e.e.e.e.e.e.e.e.e.e.",
"e.e.e.e.e.e.e.e.e.. 4 P ( _ Z k H } ` F i <   e.e.e.e.e.e.e.e.e.",
"e.e.e.e.e.e.e.e.e.  > B R w.7.E X.#.:.Y : O & e.e.e.e.e.e.e.e.e.",
"e.e.e.e.e.e.e.e.e.o , N T ,.;.w.3.q.<.U ; h C 9 = e.e.e.e.e.e.e.",
"e.e.e.e.e.e.e.e.r e 9 g D @.=.Q X.%.&.S 1 x { G p e.e.e.e.e.e.e.",
"e.e.e.e.e.e.e.e.r r y d j A o.) ' } | J a e M H l e.e.e.e.e.e.e.",
"e.e.e.e.e.e.e.e.r w ! 1.2.9.$.) ) ] [ K z s f t r e.e.e.e.e.e.e.",
"e.e.e.e.e.e.e.e.r w ^ -.;.;.0.5.5. .I ..W *.O.0 9 e.e.e.e.e.e.e.",
"e.e.e.e.e.e.e.e.9 q ~ 4.-.;.;.;.;.8.5.5.-.<./ # + e.e.e.e.e.e.e.",
"e.e.e.e.e.e.e.e.@ 3 M X.6.>.;.;.;.;.;.;.;.+.v o X e.e.e.e.e.e.e."
};
