/* XPM */
static char *result[] = {
/* columns rows colors chars-per-pixel */
"32 32 81 1 ",
"  c #FF00FF00",
". c #7909FA",
"X c #7A09FA",
"o c #7B09FA",
"O c #7C0AFA",
"+ c #7D0BFA",
"@ c #7E0CFA",
"# c #7F0CFA",
"$ c #800DFA",
"% c #810DFA",
"& c #830EFA",
"* c #840FFA",
"= c #8610FA",
"- c #8D13FA",
"; c #8D12FB",
": c #8D14FA",
"> c #8E14FA",
", c #9015FA",
"< c #9619FB",
"1 c #9719FB",
"2 c #971AFB",
"3 c #981AFB",
"4 c #A11FFB",
"5 c #A21FFB",
"6 c #A220FB",
"7 c #A320FB",
"8 c #A420FB",
"9 c #A622FB",
"0 c #A722FB",
"q c #A720FC",
"w c #A823FB",
"e c #A923FB",
"r c #A924FB",
"t c #AA24FB",
"y c #AB25FB",
"u c #AD25FB",
"i c #AC26FB",
"p c #AD26FB",
"a c #A822FC",
"s c #AA23FC",
"d c #AE29F9",
"f c #AF2AF9",
"g c #B02AF9",
"h c #B12AF9",
"j c #B028FB",
"k c #BB2DFC",
"l c #BB2CFD",
"z c #BC2EFC",
"x c #BD2EFC",
"c c #B431F6",
"v c #B733F6",
"b c #BF30FC",
"n c #C533FC",
"m c #C633FC",
"M c #C835FC",
"N c #CF38FD",
"B c #D63CFD",
"V c #D83DFD",
"C c #D83EFD",
"Z c #D93EFD",
"A c #DA3EFD",
"S c #DB3FFD",
"D c #EF78DE",
"F c #F37DDC",
"G c #C848EF",
"H c #CB4CED",
"J c #DE4BF6",
"K c #DF49F8",
"L c #E14DF6",
"P c #ED6BE6",
"I c #F16FE5",
"U c #FC8AD7",
"Y c #FE8AD7",
"T c #FE8BD7",
"R c #FF8DD6",
"E c #FF8ED6",
"W c #FC86D9",
"Q c #FA81DC",
"! c #FA82DC",
"~ c #FA88D8",
"^ c #FF00FF00",
/* pixels */
"^^^^^^^^^^^^^^^^^^^^^^^^^^^^^^^^",
"^^^^^^^^^^^^^^^^^^^^^^^^^^^^^^^^",
"^^^^^^^^^^^^^^^^^^^^^^^^^^^^^^^^",
"^^^^^^^^^^^^^^^^^^^^^^^^^^^^^^^^",
"^^^^^^^^^^^^^^^^^^^^^^^^^^^^^^^^",
"^^^^^^^^^^^^^^^^^^^^^^^^^^^^^^^^",
"^^^^^^^^^^^^^^^^^^^^^^^^^^^^^^^^",
"^^^^^^^^^^^^^^^^^^^^^^^^^^^^^^^^",
"^^^^^^^^^^^^^^^^^^^^^^^^^^^^^^^^",
"^^^^^^^^^^^^^^^^^^^^^^^^^^^^^^^^",
"^^^^^^^^^^^^^^^^^^^^^^^^^^^^^^^^",
"^^^^^^^^^^^^^^^^^^^^^^^^^^^^^^^^",
"^^^^^^^^^^^^^^^^^^^^^^^^^^^^^^^^",
"^^^^^^^^^^^^^XX^^^^^^^^^^^^^^^^^",
"^^^^^^^^^^^^^XX^^tt^^^^^^^^^^^^^",
"^^^^^^^^^^^^^^^^tw0^^^^^^^^^^^^^",
"^^^^^^^^^^^^^^^^u,X^^^^^^^^^^^^^",
"^^^^^^^^^^^^^^^^V^^^^^^^^^^^^^^^",
"^^^^^^^^^^^tt^^^B^^^^^^^^^^^^^^^",
"^^^^^^^^^^^tt^^^#^^^ttt^^^^^^^^^",
"^^^^^^^^^^^wt- XX^^^ttt^^^^^^^^^",
"^^^^^^^^^^^=8:.+#^^%7r0^^^^^^^^^",
"^^^^^^^^^^^wt>-jNb1&4-X^^^^^^^^^",
"^^^^^^^^^ttttmVZSZn6*oX^^^^^^^^^",
"^^^^^^^^^tttwmAVVxttw-XX^^^^^^^^",
"^^^^^^^^^tt4&3uphgfdyt<X^^^^^^^^",
"^^^^^^^^^^^OXO;cD~~Dvs3&7^^^^^^^",
"^^^^^^^^^^^XO2avFERQJk0wt^^^^^^^",
"^^^^^^^^^@o$5ekJQRTYWGqtt^^^^^^^",
"^^^^^^^^tt1=9iHWYTTYWGqtw^^^^^^^",
"^^^^^^^^ttzBCPUTTTR!Lzt7&^^^^^^^",
"^^^^^^^$8MSSSIETTTRQKlt7%^^^^^^^"
};
