/* XPM */
static char *_def796a7b004535987990add64f289dKsKmccrCbL7CztTE[] = {
/* columns rows colors chars-per-pixel */
"32 32 5 1 ",
"  c #72751B",
". c #7F8124",
"X c #787B21",
"o c #686F16",
"O c white",
/* pixels */
"                                ",
"                                ",
"                                ",
"                                ",
"                                ",
"                                ",
"                                ",
"                                ",
"                                ",
"                                ",
"                                ",
"                      .         ",
"                     XX  X..    ",
"                  .  Xo XX.     ",
"                  oXX oXXXo     ",
"                  oXX  XXoX.    ",
"                   oo  XoXXo    ",
"                       ooXo     ",
"             ..X                ",
"              .XX               ",
"              oXX               ",
"               oo               ",
"                                ",
"                                ",
"                                ",
"                                ",
"                                ",
"                                ",
"                                ",
"                                ",
"                                ",
"                                "
};
