/* XPM */
static char *tile0051719851910[] = {
/* columns rows colors chars-per-pixel */
"32 32 16 1 ",
"  c #FF00FF00",
". c #4E4E4E",
"X c #6D6F7D",
"o c #73747B",
"O c #7E7E7E",
"+ c #919090",
"@ c #93949E",
"# c #97989C",
"$ c #9597A1",
"% c gray67",
"& c #AEAFB6",
"* c gray79",
"= c #D0D0D0",
"- c #D2D1D1",
"; c gray84",
": c gray87",
/* pixels */
"                                ",
"            ........O           ",
"          ......ooo#%%O         ",
"        ......oo**===;%%+       ",
"       ..$..oo***=====;=..      ",
"      ..X..o***o#####****..     ",
"     ..$..o**o#&&&&&$oo***..    ",
"     .XX.o*oo#&&&&&$$$ooo**O    ",
"    ..$..o*o&&&&&&*:$$$$oo=OO   ",
"    .XX.o*o&&&&&#o*:o$$$$#==O   ",
"   ..$..o*#&&&#:o:*::o:$&#=*..  ",
"   .XX.o*#&&&#:$:*$$*:$:&&o**.  ",
"  ..$..#=#&&#o*******==:#$o**.O ",
"  .XX.#=#&&&oooooooo####oo$o*=O ",
"  .$$O#=#&&$ooooo:*===#ooo$#==O ",
"  .X@O#=#&$ooooo::===**ooo&#==O ",
"  .&&O#=o$$oooo::&&=*$$oo&&#==O ",
"  .@@O#*o$$oo*o:&##**oo#&&&#==O ",
"  .&&Oo*o$$oo*#:#:o**o=#&&&#==O ",
"  .O@..o*o$oo:#:::$**&=##&#==OO ",
"   O$$.o*o$####::::====##&#==O  ",
"   ..X..o*####o:::::===###==OO  ",
"    .$$.o=###ooo:::##=####==O   ",
"    ..X.O#=o$oo##:::::#&##=OO   ",
"     .&&O#*ooo&##&&&&&###==O    ",
"     OO@O.o**##&&&&&&##===O.    ",
"      OO$..#===######====..     ",
"       ..XOO##==========..      ",
"        .OOOOO##======O..       ",
"          OOOOOO####O..         ",
"            OOOOOOOO.           ",
"                                "
};
