/* XPM */
static char *result[] = {
/* columns rows colors chars-per-pixel */
"32 32 111 2 ",
"   c #FF00FF00",
".  c #7908FA",
"X  c #7A09FA",
"o  c #7B09FA",
"O  c #7C0AFA",
"+  c #7D0AFA",
"@  c #7D0BFA",
"#  c #7F0CFA",
"$  c #800CFA",
"%  c #800DFA",
"&  c #810DFA",
"*  c #830EFA",
"=  c #840EFA",
"-  c #8A12FA",
";  c #9717FC",
":  c #9619FB",
">  c #9719FB",
",  c #9818FC",
"<  c #A11FFB",
"1  c #AA36EF",
"2  c #A320FB",
"3  c #A420FB",
"4  c #A521FB",
"5  c #A722FB",
"6  c #A723FB",
"7  c #A720FC",
"8  c #A823FB",
"9  c #A923FB",
"0  c #AA23FB",
"q  c #A826F9",
"w  c #A824FB",
"e  c #A924FB",
"r  c #AA24FB",
"t  c #AC25FB",
"y  c #AD26FB",
"u  c #AE26FB",
"i  c #AF27FB",
"p  c #A922FC",
"a  c #AA22FC",
"s  c #AE29F9",
"d  c #AF2AF9",
"f  c #AE29FA",
"g  c #B128FB",
"h  c #B529FC",
"j  c #B72BFC",
"k  c #B82FF9",
"l  c #BD2FFB",
"z  c #B92CFC",
"x  c #BB2DFC",
"c  c #BA2CFD",
"v  c #BB2EFC",
"b  c #BD2EFC",
"n  c #B330F6",
"m  c #B733F6",
"M  c #B833F6",
"N  c #B937F4",
"B  c #C632FD",
"V  c #C732FE",
"C  c #C935FC",
"Z  c #CA36FC",
"A  c #CD37FD",
"S  c #CC3AFA",
"D  c #D23AFD",
"F  c #D43BFD",
"G  c #D83EFD",
"H  c #D93EFD",
"J  c #DB3FFD",
"K  c #DC3FFD",
"L  c #EE78DE",
"P  c #EF78DE",
"I  c #F27DDC",
"U  c #F47EDC",
"Y  c #F87DDE",
"T  c #F87EDE",
"R  c #C849EF",
"E  c #C94AEE",
"W  c #CB4BEE",
"Q  c #CB4AEF",
"!  c #DE4BF6",
"~  c #D740FB",
"^  c #DC47F8",
"/  c #DF47F9",
"(  c #DD44FB",
")  c #DC40FD",
"_  c #DE40FD",
"`  c #DE42FC",
"'  c #DF48F9",
"]  c #E14CF6",
"[  c #E759F0",
"{  c #E065E4",
"}  c #F16EE6",
"|  c #F372E3",
" . c #FD8AD7",
".. c #FC8BD7",
"X. c #FE8AD7",
"o. c #FE8BD7",
"O. c #FF8BD7",
"+. c #FD8CD7",
"@. c #FF8DD6",
"#. c #FE8CD7",
"$. c #FE8ED6",
"%. c #FF8ED6",
"&. c #FA85D9",
"*. c #FA86D9",
"=. c #FB86D9",
"-. c #FC86D9",
";. c #FC87D9",
":. c #FA81DC",
">. c #FA89D8",
",. c #FD89D8",
"<. c #FF00FF00",
/* pixels */
"<.<.<.<.<.<.<.<.<.<.<.<.<.<.<.<.<.<.<.<.<.<.<.<.<.<.<.<.<.<.<.<.",
"<.<.<.<.<.<.<.<.<.<.<.<.<.<.<.<.<.<.<.<.<.<.<.<.<.<.<.<.<.<.<.<.",
"<.<.<.<.<.<.<.<.<.<.<.<.<.<.<.<.<.<.<.<.<.<.<.<.<.<.<.<.<.<.<.<.",
"<.<.<.<.<.<.<.<.<.<.<.<.<.<.<.<.<.<.<.<.<.<.<.<.<.<.<.<.<.<.<.<.",
"<.<.<.<.<.<.<.<.<.<.<.<.<.<.<.<.<.<.<.<.<.<.<.<.<.<.<.<.<.<.<.<.",
"<.<.<.<.<.<.<.<.<.<.<.<.<.<.<.<.<.<.<.<.<.<.<.<.<.<.<.<.<.<.<.<.",
"<.<.<.<.<.<.<.<.<.<.<.<.<.<.<.<.<.<.<.<.<.<.<.<.<.<.<.<.<.<.<.<.",
"<.<.<.<.<.<.<.<.<.<.<.<.<.<.<.<.<.<.<.<.<.<.<.<.<.<.<.<.<.<.<.<.",
"<.<.<.<.<.<.<.<.<.<.<.<.<.<.<.<.<.<.<.<.<.<.<.<.<.<.<.<.<.<.<.<.",
"<.<.<.<.<.<.<.<.<.<.<.<.<.<.<.<.<.<.<.<.<.<.<.<.<.<.<.<.<.<.<.<.",
"<.<.<.<.<.<.<.<.<.<.<.<.<.<.<.<.<.<.<.<.<.<.<.<.<.<.<.<.<.<.<.<.",
"<.<.<.<.<.<.<.<.<.<.<.<.<.<.<.X <.<.<.<.<.<.<.<.<.<.<.<.<.<.<.<.",
"<.<.<.<.<.<.<.<.<.<.<.<.<.<.<.<.<.<.<.<.<.<.<.<.<.<.<.<.<.<.<.<.",
"<.<.<.<.<.<.<.<.<.<.<.<.<.<.<.<.<.t r <.<.<.<.<.<.<.<.<.<.<.<.<.",
"<.<.<.<.<.<.<.<.<.<.<.<.<.<.<.<.J z 4 <.<.<.<.<.<.<.<.<.<.<.<.<.",
"<.<.<.<.<.<.<.<.<.<.<.<.<.<.<.<.<.$ + <.<.<.<.<.<.<.<.<.<.<.<.<.",
"<.<.<.<.<.<.<.<.<.<.<.<.<.<.<.<.<.<.<.<.<.<.<.<.<.<.<.<.<.<.<.<.",
"<.<.<.<.<.<.<.<.<.<.<.<.r <.<.<.<.<.<.<.r r r <.<.<.<.<.<.<.<.<.",
"<.<.<.<.<.<.<.<.<.<.<.r r <.<.<.<.<.<.<.r r r <.<.<.<.<.<.<.<.<.",
"<.<.<.<.<.<.<.<.<.<.<.r r <.<.<.<.<.<.<.6 <.<.<.<.<.<.<.<.<.<.<.",
"<.<.<.<.<.<.<.<.<.<.<.<.r <.<.y y <.<.<.@ <.<.<.<.<.<.<.<.<.<.<.",
"<.<.<.<.<.<.<.<.<.<.<.r t C K G G v e <.X <.<.<.<.<.<.<.<.<.<.<.",
"<.<.<.<.<.<.<.<.<.<.<.u A H J J H x r 3 % . X <.<.<.<.<.<.<.<.<.",
"<.<.<.<.<.<.<.<.<.<.<.@ $ j ` ~ k d f 3 % + & <.<.<.<.<.<.<.<.<.",
"<.<.<.<.<.<.<.<.<.<.<.X O , Q -.*.>.{ q = h Z t <.<.<.<.<.<.<.<.",
"<.<.<.<.<.<.<.<.<.<.<.& < 7 E X.o.o.+.L n B _ A - <.<.<.<.<.<.<.",
"<.<.<.<.<.<.<.<.<.<.<.& 2 a W X.o.o.%.I M B ) F i <.<.<.<.<.<.<.",
"<.<.<.<.<.<.<.<.r t > * 3 V [ ;.X.o.o.Y ^ c b D g <.<.<.<.<.<.<.",
"<.<.<.<.<.<.<.<.r r 9 w s S ` ] T $.| ' ( l 9 t 8 <.<.<.<.<.<.<.",
"<.<.<.<.<.<.<.<.5 9 p m P ..} ( / | #.;.-.R 7 < * <.<.<.<.<.<.<.",
"<.<.<.<.<.<.<.<.@ : x ! :.@.,.;.;.,.o. .&.R ; # o <.<.<.<.<.<.<.",
"<.<.<.<.<.<.<.<.<.  1 =.O.o.o.o.o.o.%.U N 0 9 5 <.<.<.<.<.<.<.<."
};
