/* XPM */
static char *result[] = {
/* columns rows colors chars-per-pixel */
"32 32 109 2 ",
"   c #FF00FF00",
".  c #7A08FA",
"X  c #7A09FA",
"o  c #7C0AFA",
"O  c #7D0BFA",
"+  c #7E0BFA",
"@  c #7D0CFA",
"#  c #7F0CFA",
"$  c #800CFA",
"%  c #800DFA",
"&  c #810DFA",
"*  c #830EFA",
"=  c #8911FA",
"-  c #8911FB",
";  c #8E15F9",
":  c #9617FC",
">  c #9719FB",
",  c #971AFB",
"<  c #991AFB",
"1  c #991BFB",
"2  c #9B1CFB",
"3  c #A11FFB",
"4  c #A61FFC",
"5  c #A220FB",
"6  c #A320FB",
"7  c #A420FB",
"8  c #A421FB",
"9  c #A621FB",
"0  c #A722FB",
"q  c #A723FB",
"w  c #A823FB",
"e  c #A923FB",
"r  c #AA24FB",
"t  c #AB25FB",
"y  c #AB27FA",
"u  c #AC25FB",
"i  c #AC26FA",
"p  c #AD26FB",
"a  c #AE26FB",
"s  c #AF27FB",
"d  c #A922FC",
"f  c #AC28F9",
"g  c #AE29F9",
"h  c #AE2AF9",
"j  c #AF2AF9",
"k  c #AE29FA",
"l  c #B128FB",
"z  c #B52DF9",
"x  c #BD2EFC",
"c  c #BE2FFC",
"v  c #B733F6",
"b  c #BD30FB",
"n  c #BE31FB",
"m  c #C034FA",
"M  c #C634FC",
"N  c #C836FB",
"B  c #CA36FC",
"V  c #CA36FD",
"C  c #D13AFD",
"Z  c #D23AFD",
"A  c #D43BFD",
"S  c #D93CFD",
"D  c #DB3FFD",
"F  c #EF78DE",
"G  c #F67CDD",
"H  c #F77DDE",
"J  c #C949EF",
"K  c #C94AEE",
"L  c #C94CED",
"P  c #CC4DED",
"I  c #CA56E5",
"U  c #CC58E5",
"Y  c #CD58E5",
"T  c #DE4BF6",
"R  c #D741FB",
"E  c #DD43FB",
"W  c #DB40FD",
"Q  c #DD40FD",
"!  c #E65BEE",
"~  c #EA5EED",
"^  c #E85CEE",
"/  c #E95CEE",
"(  c #E24EF6",
")  c #E049F8",
"_  c #DD62E5",
"`  c #DE62E5",
"'  c #DE64E4",
"]  c #E065E4",
"[  c #F06DE6",
"{  c #F06CE7",
"}  c #F16FE6",
"|  c #FA8BD7",
" . c #FB8BD7",
".. c #FE8AD7",
"X. c #FE8BD7",
"o. c #FC8CD7",
"O. c #FD8CD7",
"+. c #FF8DD6",
"@. c #FF8FD6",
"#. c #F985D9",
"$. c #FA85D9",
"%. c #FC86D9",
"&. c #FC87D9",
"*. c #F981DC",
"=. c #FA81DC",
"-. c #FB8AD8",
";. c #FD88D8",
":. c #FE8BD8",
">. c #FF00FF00",
/* pixels */
">.>.>.>.>.>.>.>.>.>.>.>.>.>.>.>.>.>.>.>.>.>.>.>.>.>.>.>.>.>.>.>.",
">.>.>.>.>.>.>.>.>.>.>.>.>.>.>.>.>.>.>.>.>.>.>.>.>.>.>.>.>.>.>.>.",
">.>.>.>.>.>.>.>.>.>.>.>.>.>.>.>.>.>.>.>.>.>.>.>.>.>.>.>.>.>.>.>.",
">.>.>.>.>.>.>.>.>.>.>.>.>.>.>.>.>.>.>.>.>.>.>.>.>.>.>.>.>.>.>.>.",
">.>.>.>.>.>.>.>.>.>.>.>.>.>.>.>.>.>.>.>.>.>.>.>.>.>.>.>.>.>.>.>.",
">.>.>.>.>.>.>.>.>.>.>.>.>.>.>.>.>.>.>.>.>.>.>.>.>.>.>.>.>.>.>.>.",
">.>.>.>.>.>.>.>.>.>.>.>.>.>.>.>.>.>.>.>.>.>.>.>.>.>.>.>.>.>.>.>.",
">.>.>.>.>.>.>.>.>.>.>.>.>.>.>.>.>.>.>.>.>.>.>.>.>.>.>.>.>.>.>.>.",
">.>.>.>.>.>.>.>.>.>.>.>.>.>.>.>.>.>.>.>.>.>.>.>.>.>.>.>.>.>.>.>.",
">.>.>.>.>.>.>.>.>.>.>.>.>.>.>.>.>.>.>.>.>.>.>.>.>.>.>.>.>.>.>.>.",
">.>.>.>.>.>.>.>.>.>.>.>.>.>.>.>.>.>.>.>.>.>.>.>.>.>.>.>.>.>.>.>.",
">.>.>.>.>.>.>.>.>.>.>.>.>.>.>.>.r >.>.>.>.>.>.>.>.>.>.>.>.>.>.>.",
">.>.>.>.>.>.>.>.>.>.>.>.>.>.>.>.>.>.>.>.>.>.>.>.>.>.>.>.>.>.>.>.",
">.>.>.>.>.>.>.>.>.>.>.>.>.>.>.>.>.>.>.>.>.>.>.>.>.>.>.>.>.>.>.>.",
">.>.>.>.>.>.>.>.>.>.>.>.>.>.>.>.>.>.>.r >.>.>.>.>.>.>.>.>.>.>.>.",
">.>.>.>.>.>.>.>.>.>.>.>.r >.>.>.>.>.>.r r >.>.>.>.>.>.>.>.>.>.>.",
">.>.>.>.>.>.>.>.>.>.>.>.0 >.>.>.>.>.>.>.q >.>.>.>.>.>.>.>.>.>.>.",
">.>.>.>.>.>.>.>.>.>.>.>.# + O >.>.>.>.>.O >.>.>.>.>.>.>.>.>.>.>.",
">.>.>.>.>.>.>.>.>.>.>.& 3 w w >.>.>.>.>.>.>.>.>.>.>.>.>.>.>.>.>.",
">.>.>.>.>.>.>.>.>.X   % 7 t t 6 * >.>.>.>.>.>.>.>.>.>.>.>.>.>.>.",
">.>.>.>.>.>.>.>.>.X   % 7 k j g t r r >.>.>.>.>.>.>.>.>.>.>.>.>.",
">.>.>.>.>.>.>.>.>.X   $ 8 ` | G T n y r >.>.>.>.>.>.>.>.>.>.>.>.",
">.>.>.>.>.>.>.>.>.>.>.$ 5 ] @...&.-._ 5 $ >.>.>.>.>.>.>.>.>.>.>.",
">.>.>.>.>.>.>.>.>.>.>.>.+ I o.X.X.o.U @ # 2 a r >.>.>.>.>.>.>.>.",
">.>.>.>.>.>.>.>.>.>.>.X o 1 P &.&.P , = V D M r >.>.>.>.>.>.>.>.",
">.>.>.>.>.>.>.>.p s < * 3 e b E E b 9 a C D M r >.>.>.>.>.>.>.>.",
">.>.>.>.>.>.>.l Z D N f h i c W E m y r u p u r >.>.>.>.>.>.>.>.",
">.>.>.>.>.>.>.s A Q ^ #.#.! S ) H  .' h t r r >.>.>.>.>.>.>.>.>.",
">.>.>.>.>.>.>.- B [ X.X.X.X.{ ( *.+.O.F v d w >.>.>.>.>.>.>.>.>.",
">.>.>.>.>.>.>.. % Y o.X.X.;.%.&...X.+.=.T x > X >.>.>.>.>.>.>.>.",
">.>.>.>.>.>.>.>.X > L $.&./ ~ X.X.X.X...%.J : O >.>.>.>.>.>.>.>.",
">.>.>.>.>.>.>.>.>.. ; z R } :.X.X.X.X.X...K 4 0 >.>.>.>.>.>.>.>."
};
