/* XPM */
static char *result[] = {
/* columns rows colors chars-per-pixel */
"32 32 98 2 ",
"   c #FF00FF00",
".  c #7909FA",
"X  c #7A09FA",
"o  c #7B09FA",
"O  c #7B0AFA",
"+  c #7C0AFA",
"@  c #7D0BFA",
"#  c #7E0BFA",
"$  c #810DFA",
"%  c #820EFA",
"&  c #830FFA",
"*  c #840FFA",
"=  c #8C13FA",
"-  c #8D13FA",
";  c #9719FB",
":  c #971AFB",
">  c #981AFB",
",  c #9E1DFB",
"<  c #A320FB",
"1  c #A420FB",
"2  c #A520FB",
"3  c #A621FB",
"4  c #A723FB",
"5  c #A823FB",
"6  c #A923FB",
"7  c #AA24FB",
"8  c #AB24FB",
"9  c #AB25FB",
"0  c #AB27FA",
"q  c #AC25FB",
"w  c #AD25FB",
"e  c #AC26FA",
"r  c #AD26FB",
"t  c #A921FC",
"y  c #AB23FC",
"u  c #AD29F9",
"i  c #AF2AF9",
"p  c #B329FB",
"a  c #B62BFB",
"s  c #B72BFC",
"d  c #BB2FFB",
"f  c #BB2EFC",
"g  c #BC2CFD",
"h  c #BD2EFC",
"j  c #B934F7",
"k  c #C533FC",
"l  c #C734FC",
"z  c #C835FC",
"x  c #C935FC",
"c  c #D63FFB",
"v  c #D23AFD",
"b  c #D63CFD",
"n  c #D83DFD",
"m  c #D93EFD",
"M  c #DA3EFD",
"N  c #DB3FFD",
"B  c #D93DFE",
"V  c #DA3CFE",
"C  c #F27ADE",
"Z  c #F77DDE",
"A  c #F87DDE",
"S  c #CA49EF",
"D  c #CA4CED",
"F  c #CB4CED",
"G  c #CA56E5",
"H  c #CB57E5",
"J  c #DA42FB",
"K  c #DB42FB",
"L  c #DD47F8",
"P  c #DD44FB",
"I  c #DB40FC",
"U  c #DD41FC",
"Y  c #DD40FD",
"T  c #DE41FD",
"R  c #DD48F8",
"E  c #E859EF",
"W  c #E95EEE",
"Q  c #E14DF6",
"!  c #E24DF6",
"~  c #E759F0",
"^  c #DD62E5",
"/  c #EF6DE6",
"(  c #F06EE6",
")  c #FE8AD7",
"_  c #FE8BD7",
"`  c #FC8CD7",
"'  c #FF8DD6",
"]  c #FE8CD7",
"[  c #F984D9",
"{  c #F985D9",
"}  c #FC86D9",
"|  c #FC87D9",
" . c #FA81DC",
".. c #F982DC",
"X. c #FA89D8",
"o. c #FD88D8",
"O. c #FD89D8",
"+. c #FF00FF00",
/* pixels */
"+.+.+.+.+.+.+.+.+.+.+.+.+.+.+.+.+.+.+.+.+.+.+.+.+.+.+.+.+.+.+.+.",
"+.+.+.+.+.+.+.+.+.+.+.+.+.+.+.+.+.+.+.+.+.+.+.+.+.+.+.+.+.+.+.+.",
"+.+.+.+.+.+.+.+.+.+.+.+.+.+.+.+.+.+.+.+.+.+.+.+.+.+.+.+.+.+.+.+.",
"+.+.+.+.+.+.+.+.+.+.+.+.+.+.+.+.+.+.+.+.+.+.+.+.+.+.+.+.+.+.+.+.",
"+.+.+.+.+.+.+.+.+.+.+.+.+.+.+.+.+.+.+.+.+.+.+.+.+.+.+.+.+.+.+.+.",
"+.+.+.+.+.+.+.+.+.+.+.+.+.+.+.+.+.+.+.+.+.+.+.+.+.+.+.+.+.+.+.+.",
"+.+.+.+.+.+.+.+.+.+.+.+.+.+.+.+.+.+.+.+.+.+.+.+.+.+.+.+.+.+.+.+.",
"+.+.+.+.+.+.+.+.+.+.+.+.+.+.+.+.+.+.+.+.+.+.+.+.+.+.+.+.+.+.+.+.",
"+.+.+.+.+.+.+.+.+.+.+.+.+.+.+.+.+.+.+.+.+.+.+.+.+.+.+.+.+.+.+.+.",
"+.+.+.+.+.+.+.+.+.+.+.+.+.+.+.+.+.+.+.+.+.+.+.+.+.+.+.+.+.+.+.+.",
"+.+.+.+.+.+.+.+.+.+.+.+.+.+.+.+.+.+.+.+.+.+.+.+.+.+.+.+.+.+.+.+.",
"+.+.+.+.+.+.+.+.+.+.+.+.+.+.+.+.+.+.+.+.+.+.+.+.+.+.+.+.+.+.+.+.",
"+.+.+.+.+.+.+.+.+.+.+.+.+.+.+.+.+.+.+.+.+.+.+.+.+.+.+.+.+.+.+.+.",
"+.+.+.+.+.+.+.+.+.+.+.+.+.7 7 +.+.+.+.7 +.+.+.+.+.+.+.+.+.+.+.+.",
"+.+.+.+.+.+.+.+.+.+.+.+.+.+.+.+.+.+.+.< $ +.+.+.+.+.+.+.+.+.+.+.",
"+.+.+.+.+.+.+.+.+.+.+.+.+.+.+.+.+.+.+.+.X +.+.+.+.+.+.+.+.+.+.+.",
"+.+.+.+.+.+.+.+.+.+.+.X X +.+.+.r +.+.+.+.+.+.+.+.+.+.+.+.+.+.+.",
"+.+.+.+.+.+.+.+.+.X X X X +.+.N m M m +.+.+.+.+.+.+.+.+.+.+.+.+.",
"+.+.+.+.+.+.+.+.+.X X X o s T N N Y x 7 +.+.+.+.+.+.+.+.+.+.+.+.",
"+.+.+.+.+.+.+.+.+.+.+.. +.n m N N m k 7 +.+.+.+.+.+.+.+.+.+.+.+.",
"+.+.+.+.+.+.+.+.+.+.+.+.+.7 f b b , + +.+.+.+.+.+.+.+.+.+.+.+.+.",
"+.+.+.+.+.+.+.+.+.+.+.+.+.+.+.% % @ . +.+.+.+.+.+.+.+.+.+.+.+.+.",
"+.+.+.+.+.+.+.+.+.+.+.+.+.+.+.4 4 =   +.7 7 7 7 +.+.+.+.+.+.+.+.",
"+.+.+.+.+.+.+.+.+.7 7 7 7 = - 7 7 7 ; * 1 9 7 7 +.+.+.+.+.+.+.+.",
"+.+.+.+.+.+.+.+.7 7 e i i u 0 7 7 q q 7 7 7 7 +.+.+.+.+.+.+.+.+.",
"+.+.+.+.+.+.+.+.4 6 D [ { X.^ r r z N v p 7 5 +.+.+.+.+.+.+.+.+.",
"+.+.+.+.+.+.+.+.# G ` _ _ _ / J J I N N m h ; X +.+.+.+.+.+.+.+.",
"+.+.+.+.+.+.+.+.O H ` ) | E E | | ~ V N m h : @ +.+.+.+.+.+.+.+.",
"+.+.+.+.+.+.+.+.+.5 F A Q N W _ _ W U c a w 8 5 7 +.+.+.+.+.+.+.",
"+.+.+.+.+.+.+.+.+.3 d K P ( _ _ _ o.O.Z L B l 7 5 +.+.+.+.+.+.+.",
"+.+.+.+.+.+.+.+.X > y j C ] _ _ _ _ ' ..! N z 2 & +.+.+.+.+.+.+.",
"+.+.+.+.+.+.+.X X ; g R  .' _ _ _ _ _ ) } S t 7 +.+.+.+.+.+.+.+."
};
