/* XPM */
static char *result[] = {
/* columns rows colors chars-per-pixel */
"32 32 95 2 ",
"   c #FF00FF00",
".  c #7B09FA",
"X  c #7B0AFA",
"o  c #7C0AFA",
"O  c #7D0BFA",
"+  c #7E0BFA",
"@  c #7F0CFA",
"#  c #800CFA",
"$  c #810DFA",
"%  c #830EFA",
"&  c #8E1BF5",
"*  c #8911FA",
"=  c #8B13FA",
"-  c #8D14FA",
";  c #9315FC",
":  c #9518FB",
">  c #9A1BFB",
",  c #9B1CFB",
"<  c #9C1CFB",
"1  c #9C1AFC",
"2  c #A11FFB",
"3  c #A320FB",
"4  c #A722FB",
"5  c #A723FB",
"6  c #A721FC",
"7  c #A822FB",
"8  c #A823FB",
"9  c #A923FB",
"0  c #AA27F9",
"q  c #AA24FB",
"w  c #AB24FB",
"e  c #AB25FB",
"r  c #AC25FB",
"t  c #AD25FB",
"y  c #AC27FA",
"u  c #AE26FB",
"i  c #AF26FB",
"p  c #AF27FB",
"a  c #B027FB",
"s  c #B02BF9",
"d  c #B128FB",
"f  c #B42AFB",
"g  c #B62AFC",
"h  c #B72BFC",
"j  c #B230F6",
"k  c #B733F6",
"l  c #B833F6",
"z  c #BE31FB",
"x  c #C532FC",
"c  c #C833FD",
"v  c #CC37FD",
"b  c #CF38FD",
"n  c #D33EFB",
"m  c #D43EFB",
"M  c #D63FFB",
"N  c #D038FD",
"B  c #D13AFD",
"V  c #D23AFD",
"C  c #D53CFD",
"Z  c #D83EFD",
"A  c #D93FFD",
"S  c #DB3FFD",
"D  c #D83CFE",
"F  c #E874DE",
"G  c #EF78DE",
"H  c #F17ADE",
"J  c #F27ADE",
"K  c #F87EDE",
"L  c #C748EF",
"P  c #DE4BF6",
"I  c #DE45FB",
"U  c #DC40FD",
"Y  c #DF41FD",
"T  c #DE42FC",
"R  c #DD48F8",
"E  c #DE48F8",
"W  c #E14DF6",
"Q  c #DF63E5",
"!  c #E366E5",
"~  c #E268E3",
"^  c #F271E4",
"/  c #FE8AD7",
"(  c #FE8BD7",
")  c #FD8CD7",
"_  c #FF8DD6",
"`  c #FE8CD7",
"'  c #FF8ED6",
"]  c #FF8FD6",
"[  c #FC86D9",
"{  c #FC87D9",
"}  c #F981DC",
"|  c #FA81DC",
" . c #FA82DC",
".. c #FB89D8",
"X. c #FF00FF00",
/* pixels */
"X.X.X.X.X.X.X.X.X.X.X.X.X.X.X.X.X.X.X.X.X.X.X.X.X.X.X.X.X.X.X.X.",
"X.X.X.X.X.X.X.X.X.X.X.X.X.X.X.X.X.X.X.X.X.X.X.X.X.X.X.X.X.X.X.X.",
"X.X.X.X.X.X.X.X.X.X.X.X.X.X.X.X.X.X.X.X.X.X.X.X.X.X.X.X.X.X.X.X.",
"X.X.X.X.X.X.X.X.X.X.X.X.X.X.X.X.X.X.X.X.X.X.X.X.X.X.X.X.X.X.X.X.",
"X.X.X.X.X.X.X.X.X.X.X.X.X.X.X.X.X.X.X.X.X.X.X.X.X.X.X.X.X.X.X.X.",
"X.X.X.X.X.X.X.X.X.X.X.X.X.X.X.X.X.X.X.X.X.X.X.X.X.X.X.X.X.X.X.X.",
"X.X.X.X.X.X.X.X.X.X.X.X.X.X.X.X.X.X.X.X.X.X.X.X.X.X.X.X.X.X.X.X.",
"X.X.X.X.X.X.X.X.X.X.X.X.X.X.X.X.X.X.X.X.X.X.X.X.X.X.X.X.X.X.X.X.",
"X.X.X.X.X.X.X.X.X.X.X.X.X.X.X.X.X.X.X.X.X.X.X.X.X.X.X.X.X.X.X.X.",
"X.X.X.X.X.X.X.X.X.X.X.X.X.X.X.X.X.X.X.X.X.X.X.X.X.X.X.X.X.X.X.X.",
"X.X.X.X.X.X.X.X.X.X.X.X.X.X.X.X.X.X.X.X.X.X.X.X.X.X.X.X.X.X.X.X.",
"X.X.X.X.X.X.X.X.X.X.X.X.X.X.X.X.X.X.X.  X.X.X.X.X.X.X.X.X.X.X.X.",
"X.X.X.X.X.X.X.X.X.X.X.X.X.X.X.X.X.X.X.  X.X.X.X.X.X.X.X.X.X.X.X.",
"X.X.X.X.X.X.X.X.X.X.X.X.X.X.X.X.X.X.X.X.X.X.X.X.X.X.X.X.X.X.X.X.",
"X.X.X.X.X.X.X.X.X.X.X.    X.X.r q X.X.X.X.X.X.X.X.X.X.X.X.X.X.X.",
"X.X.X.X.X.X.X.X.X.X.X.  . h Y V d 9 q X.X.X.X.X.X.X.X.X.X.X.X.X.",
"X.X.X.X.X.X.X.X.X.X.X.X.X.C Z b u 7 q X.X.X.X.X.X.X.X.X.X.X.X.X.",
"X.X.X.X.X.X.X.X.X.X.X.X.X.a < @ O X.X.X.X.X.X.X.X.X.X.X.X.X.X.X.",
"X.X.X.X.X.X.X.X.X.X.X.X.X.X.X.  X.X.X.X.X.X.X.X.X.X.X.X.X.X.X.X.",
"X.X.X.X.X.X.X.X.X.X.X.X.X.X.X.  X.X.X.X.X.X.X.X.X.X.X.X.X.X.X.X.",
"X.X.X.X.X.X.X.X.X.X.X.X.X.X.X.    X.X.X.X.q q q X.X.X.X.X.X.X.X.",
"X.X.X.X.X.X.X.X.X.X.X.q q X.X.    X.X.X.X.4 8 q X.X.X.X.X.X.X.X.",
"X.X.X.X.X.X.X.X.X.q q q r p , @ O X.X.X.X.  - q X.X.X.X.X.X.X.X.",
"X.X.X.X.X.X.X.X.X.q 7 u B A Z b u 8 8 X.X.  X X.X.X.X.X.X.X.X.X.",
"X.X.X.X.X.X.X.X.X.X.X.* v T I M f w > o   o + X.X.X.X.X.X.X.X.X.",
"X.X.X.X.X.X.X.X.X.X.X.$ 0 ! ) K P z y 2 $ : q q q X.X.X.X.X.X.X.",
"X.X.X.X.X.X.X.X.X.X.X.& F ) ( / { ..Q 4 % > p r q q q X.X.X.X.X.",
"X.X.X.X.X.X.X.X.X.8 6 j G ) ( ( ( ' ^ n i x S V d 4 4 X.X.X.X.X.",
"X.X.X.X.X.X.X.X.O > r e s ~ ] ( ( ( ` H l c U N t =   X.X.X.X.X.",
"X.X.X.X.X.X.X.X.5 9 9 a m ^ ' ( ( ( _ } E D g # O X.X.X.X.X.X.X.",
"X.X.X.X.X.X.X.X.q 8 6 k J ` ( ( ( ( _  .W 3 o     X.X.X.X.X.X.X.",
"X.X.X.X.X.X.X.X.X.  1 R | _ ( ( ( ( ( / [ L ;   X.X.X.X.X.X.X.X."
};
