/* XPM */
static char *result[] = {
/* columns rows colors chars-per-pixel */
"32 32 123 2 ",
"   c #FF00FF00",
".  c #7706FB",
"X  c #7806FB",
"o  c #7A09FA",
"O  c #7C0AFA",
"+  c #7D0AFA",
"@  c #7D0BFA",
"#  c #800CFA",
"$  c #820EFA",
"%  c #8510FA",
"&  c #8811FA",
"*  c #8E14FA",
"=  c #9019F8",
"-  c #9719FB",
";  c #981AFB",
":  c #991AFB",
">  c #9B1BFB",
",  c #9C1CFB",
"<  c #9D1CFB",
"1  c #A31FFB",
"2  c #A41FFC",
"3  c #AB38EE",
"4  c #AC3AED",
"5  c #A220FB",
"6  c #A520FB",
"7  c #A722FB",
"8  c #A620FC",
"9  c #A720FC",
"0  c #A823FB",
"q  c #AB25FA",
"w  c #AA24FB",
"e  c #AA25FB",
"r  c #AB25FB",
"t  c #AB26FA",
"y  c #AD25FB",
"u  c #AD26FB",
"i  c #AF27FB",
"p  c #A922FC",
"a  c #AE29F9",
"s  c #AF2AF9",
"d  c #AF28FA",
"f  c #B02AF9",
"g  c #B12BF9",
"h  c #B228FB",
"j  c #B329FB",
"k  c #B52DF9",
"l  c #BB2FFB",
"z  c #B92CFC",
"x  c #B92DFC",
"c  c #BA2DFC",
"v  c #BC2CFD",
"b  c #BC2EFC",
"n  c #BE2FFC",
"m  c #B431F6",
"M  c #B733F6",
"N  c #B833F6",
"B  c #BE30FB",
"V  c #C634FC",
"C  c #C734FC",
"Z  c #C837FB",
"A  c #C835FC",
"S  c #CD3BFA",
"D  c #D43EFB",
"F  c #D039FD",
"G  c #D23AFD",
"H  c #D33AFD",
"J  c #D53CFD",
"K  c #D63CFD",
"L  c #D73DFD",
"P  c #D83DFD",
"I  c #D83EFD",
"U  c #D93EFD",
"Y  c #DA3EFD",
"T  c #DB3FFD",
"R  c #EE78DE",
"E  c #F27ADE",
"W  c #F27DDC",
"Q  c #F37DDC",
"!  c #F77CDE",
"~  c #C647EF",
"^  c #C748EF",
"/  c #C848EF",
"(  c #CA4DED",
")  c #CE59E5",
"_  c #D95FE6",
"`  c #DC41FB",
"'  c #DD43FB",
"]  c #DD44FB",
"[  c #DB40FD",
"{  c #DD40FD",
"}  c #DC42FC",
"|  c #DE42FC",
" . c #DD48F8",
".. c #E558EF",
"X. c #E659EF",
"o. c #E14DF6",
"O. c #DE63E4",
"+. c #E065E4",
"@. c #EE6AE7",
"#. c #F16EE6",
"$. c #F372E5",
"%. c #F98AD7",
"&. c #FD8AD7",
"*. c #FC8BD7",
"=. c #FE8AD7",
"-. c #FE8BD7",
";. c #FF8BD7",
":. c #FF8DD6",
">. c #FF8CD7",
",. c #FC8ED6",
"<. c #FF8ED6",
"1. c #FE8FD6",
"2. c #F985D9",
"3. c #FA85D9",
"4. c #FB86D9",
"5. c #FC86D9",
"6. c #FC87D9",
"7. c #FA81DC",
"8. c #FA82DC",
"9. c #FD88D8",
"0. c #FD89D8",
"q. c #FD8AD8",
"w. c #FF00FF00",
/* pixels */
"w.w.w.w.w.w.w.w.w.w.w.w.w.w.w.w.w.w.w.w.w.w.w.w.w.w.w.w.w.w.w.w.",
"w.w.w.w.w.w.w.w.w.w.w.w.w.w.w.w.w.w.w.w.w.w.w.w.w.w.w.w.w.w.w.w.",
"w.w.w.w.w.w.w.w.w.w.w.w.w.w.w.w.w.w.w.w.w.w.w.w.w.w.w.w.w.w.w.w.",
"w.w.w.w.w.w.w.w.w.w.w.w.w.w.w.w.w.w.w.w.w.w.w.w.w.w.w.w.w.w.w.w.",
"w.w.w.w.w.w.w.w.w.w.w.w.w.w.w.w.w.w.w.w.w.w.w.w.w.w.w.w.w.w.w.w.",
"w.w.w.w.w.w.w.w.w.w.w.w.w.w.w.w.w.w.w.w.w.w.w.w.w.w.w.w.w.w.w.w.",
"w.w.w.w.w.w.w.w.w.w.w.w.w.w.w.w.w.w.w.w.w.w.w.w.w.w.w.w.w.w.w.w.",
"w.w.w.w.w.w.w.w.w.w.w.w.w.w.w.w.w.w.w.w.w.w.w.w.w.w.w.w.w.w.w.w.",
"w.w.w.w.w.w.w.w.w.w.w.w.w.w.w.w.w.w.w.w.w.w.w.w.w.w.w.w.w.w.w.w.",
"w.w.w.w.w.w.w.w.w.w.w.w.w.w.w.w.w.w.w.w.w.w.w.w.w.w.w.w.w.w.w.w.",
"w.w.w.w.w.w.w.w.w.w.w.w.w.o o w.w.w.w.w.w.w.w.w.w.w.w.w.w.w.w.w.",
"w.w.w.w.w.w.w.w.w.w.w.w.w.w.w.w.w.7 7 w.w.w.w.w.w.w.w.w.w.w.w.w.",
"w.w.w.w.w.w.w.w.w.w.w.w.w.w.w.w.w.@ @ w.w.w.w.w.w.w.w.w.w.w.w.w.",
"w.w.w.w.w.w.w.w.w.w.w.w.w.w.w.w.w.w.w.w.w.w.w.w.w.w.w.w.w.w.w.w.",
"w.w.w.w.w.w.w.w.w.w.w.w.w.w.w.w.w.w.w.w.w.w.w.w.w.w.w.w.w.w.w.w.",
"w.w.w.w.w.w.w.w.w.w.w.w.w.w.w.w.w.w.w.w.w.w.w.w.w.w.w.w.w.w.w.w.",
"w.w.w.w.w.w.w.w.w.w.w.w.w.w.w.o w.w.w.w.w.w.w.w.w.w.w.w.w.w.w.w.",
"w.w.w.w.w.w.w.w.w.w.w.w.w.o o o o w.w.w.w.w w w.w.w.w.w.w.w.w.w.",
"w.w.w.w.w.w.w.w.w.w.w.w.# O o o O w.w.w.w.w.w.w.w.w.w.w.w.w.w.w.",
"w.w.w.w.w.w.w.w.w.w.w.j F <   % 6 u u w.w.w.w.w.w.w.w.w.w.w.w.w.",
"w.w.w.w.w.w.w.w.w.T Y I L : ; J P ` Z w w.w.w.w.w.w.w.w.w.w.w.w.",
"w.w.w.w.w.w.w.w.w.P U H h & > P ' $.O.e w.w.w.w.w.w.w.w.w.w.w.w.",
"w.w.w.w.w.w.w.w.w.u y u a = * M E 1.+.5 # w.w.w.w.w.w.w.w.w.w.w.",
"w.w.w.w.w.w.w.w.w.w.w.m R %._ N W ,.) $ # , i w.w.w.w.w.w.w.w.w.",
"w.w.w.w.w.w.w.w.w.w.w.m R *.@. .! ( c K K U C w w.w.w.w.w.w.w.w.",
"w.w.w.w.w.w.w.w.w.w w r f S | [ ' l z U T { A w w.w.w.w.w.w.w.w.",
"w.w.w.w.w.w.w.w.w w q k D ] } T T b 0 j G T V w w.w.w.w.w.w.w.w.",
"w.w.w.w.w.w.w.w.w 9 ^ 3.6.q.#.] ' B t s g d r w w.w.w.w.w.w.w.w.",
"w.w.w.w.w.w.w.w.7 8 / 5.=.-.0.6.6.X...2.2.~ 2 7 w.w.w.w.w.w.w.w.",
"w.w.w.w.w.w.w.w.+ - n o.8.:.-.-.-.9.9.>.&.4 X + w.w.w.w.w.w.w.w.",
"w.w.w.w.w.w.w.w.o - v  .7.:.-.-.-.-.-.;.4.3 . o w.w.w.w.w.w.w.w.",
"w.w.w.w.w.w.w.w.w.0 p M Q <.-.-.-.-.:.8.o.x 1 w.w.w.w.w.w.w.w.w."
};
