/* XPM */
static char *result[] = {
/* columns rows colors chars-per-pixel */
"32 32 109 2 ",
"   c #FF00FF00",
".  c #7808FA",
"X  c #7A09FA",
"o  c #7B09FA",
"O  c #7B0AFA",
"+  c #7D0AFA",
"@  c #7D0BFA",
"#  c #7E0BFA",
"$  c #7F0BFA",
"%  c #7F0CFA",
"&  c #810DFA",
"*  c #830FFA",
"=  c #840FFA",
"-  c #850FFA",
";  c #8610FA",
":  c #8811FA",
">  c #8911FA",
",  c #8912FB",
"<  c #8A12FA",
"1  c #8B13FA",
"2  c #8C13FA",
"3  c #8D13FA",
"4  c #8E14FA",
"5  c #8F15FA",
"6  c #9617FC",
"7  c #9318FA",
"8  c #9719FB",
"9  c #971AFB",
"0  c #9B1BFB",
"q  c #9E1DFB",
"w  c #A11FFB",
"e  c #A420FB",
"r  c #A520FB",
"t  c #A621FB",
"y  c #A622FB",
"u  c #A722FB",
"i  c #A723FB",
"p  c #A720FC",
"a  c #A721FC",
"s  c #A823FB",
"d  c #A923FB",
"f  c #AA24FB",
"g  c #AB24FB",
"h  c #AA25FB",
"j  c #AB25FB",
"k  c #AC25FB",
"l  c #AC26FA",
"z  c #AD26FB",
"x  c #AB23FC",
"c  c #AE29F9",
"v  c #AE28FA",
"b  c #B027FB",
"n  c #B128FB",
"m  c #B228FB",
"M  c #B329FB",
"N  c #B429FC",
"B  c #B62BFC",
"V  c #B92EFB",
"C  c #B632F6",
"Z  c #B733F6",
"A  c #B735F5",
"S  c #C134FA",
"D  c #C533FC",
"F  c #C734FC",
"G  c #C835FC",
"H  c #C935FC",
"J  c #C935FD",
"K  c #CB36FD",
"L  c #CE3BFA",
"P  c #D43EFB",
"I  c #D039FD",
"U  c #D23AFD",
"Y  c #D33AFD",
"T  c #D63CFD",
"R  c #D83EFD",
"E  c #D93EFD",
"W  c #DA3FFD",
"Q  c #DB3FFD",
"!  c #D93CFE",
"~  c #DC3FFD",
"^  c #DC3EFE",
"/  c #EF78DD",
"(  c #F27ADD",
")  c #F27ADE",
"_  c #C849EE",
"`  c #C849EF",
"'  c #C94AEE",
"]  c #CB4CED",
"[  c #DD43FB",
"{  c #DD40FD",
"}  c #DE48F8",
"|  c #E049F8",
" . c #DD62E5",
".. c #DF63E5",
"X. c #F271E4",
"o. c #F472E4",
"O. c #FD8AD7",
"+. c #FC8BD7",
"@. c #FE8BD7",
"#. c #FF8DD6",
"$. c #FE8CD7",
"%. c #FF8ED6",
"&. c #F883D9",
"*. c #FA85D9",
"=. c #FC86D9",
"-. c #FC87D9",
";. c #F981DC",
":. c #FB8AD8",
">. c #FF00FF00",
/* pixels */
">.>.>.>.>.>.>.>.>.>.>.>.>.>.>.>.>.>.>.>.>.>.>.>.>.>.>.>.>.>.>.>.",
">.>.>.>.>.>.>.>.>.>.>.>.>.>.>.>.>.>.>.>.>.>.>.>.>.>.>.>.>.>.>.>.",
">.>.>.>.>.>.>.>.>.>.>.>.>.>.>.>.>.>.>.>.>.>.>.>.>.>.>.>.>.>.>.>.",
">.>.>.>.>.>.>.>.>.>.>.>.>.>.>.>.>.>.>.>.>.>.>.>.>.>.>.>.>.>.>.>.",
">.>.>.>.>.>.>.>.>.>.>.>.>.>.>.>.>.>.>.>.>.>.>.>.>.>.>.>.>.>.>.>.",
">.>.>.>.>.>.>.>.>.>.>.>.>.>.>.>.>.>.>.>.>.>.>.>.>.>.>.>.>.>.>.>.",
">.>.>.>.>.>.>.>.>.>.>.>.>.>.>.>.>.>.>.>.>.>.>.>.>.>.>.>.>.>.>.>.",
">.>.>.>.>.>.>.>.>.>.>.>.>.>.>.>.>.>.>.>.>.>.>.>.>.>.>.>.>.>.>.>.",
">.>.>.>.>.>.>.>.>.>.>.>.>.>.>.>.>.>.>.>.>.>.>.>.>.>.>.>.>.>.>.>.",
">.>.>.>.>.>.>.>.>.>.>.>.>.>.>.>.>.>.>.>.>.>.>.>.>.>.>.>.>.>.>.>.",
">.>.>.>.>.>.>.>.>.>.>.>.>.>.>.>.>.f f >.>.>.>.>.>.>.>.>.>.>.>.>.",
">.>.>.>.>.>.>.>.>.>.>.>.>.>.>.>.>.>.>.>.>.>.>.>.>.>.>.>.>.>.>.>.",
">.>.>.>.>.>.>.>.>.>.>.>.>.>.>.>.>.>.>.>.>.>.>.>.>.>.>.>.>.>.>.>.",
">.>.>.>.>.>.>.>.>.>.>.>.>.>.>.>.>.>.>.>.>.>.>.>.>.>.>.>.>.>.>.>.",
">.>.>.>.>.>.>.>.>.>.>.>.>.X X X >.>.>.>.>.>.>.>.>.>.>.>.>.>.>.>.",
">.>.>.>.>.>.>.>.>.>.>.>.X X X X >.>.>.>.>.>.>.>.>.>.>.>.>.>.>.>.",
">.>.>.>.>.>.>.>.>.>.>.>.>.X X >.>.>.>.>.>.>.>.>.>.>.>.>.>.>.>.>.",
">.>.>.>.>.>.>.>.>.>.>.>.>.>.>.>.f f f >.>.>.>.>.>.>.>.>.>.>.>.>.",
">.>.>.>.>.>.>.>.>.>.>.>.>.>.>.j c l f >.>.>.>.>.>.>.>.>.>.>.>.>.",
">.>.>.>.>.>.>.>.>.>.>.>.f >.>.C / ' p f >.>.>.>.>.>.>.>.>.>.>.>.",
">.>.>.>.>.>.>.>.>.>.>.f f >.>.>.&._ a w & >.>.>.>.>.>.>.>.>.>.>.",
">.>.>.>.>.>.>.>.>.>.>.f f >.>.>.c l 8 @ % >.>.>.>.>.>.>.>.>.>.>.",
">.>.>.>.>.>.>.>.>.  1 s f 3 . = y 7 O ; J Q E >.>.>.>.>.>.>.>.>.",
">.>.>.>.>.>.>.>.>.X o ; e 1 > b Y Q N 2 K ~ F f >.>.>.>.>.>.>.>.",
">.>.>.>.>.>.>.>.>.# 5 f f : 0 R Q Q W I M k g u >.>.>.>.>.>.>.>.",
">.>.>.>.>.>.>.>.f D E Y m < q W Q E E U n s 9 + >.>.>.>.>.>.>.>.",
">.>.>.>.>.>.>.>.f G { W T B V [ [ S v k f 4 X X >.>.>.>.>.>.>.>.",
">.>.>.>.>.>.>.>.f D R I M h ] =.-.:. .z d 4 X X >.>.>.>.>.>.>.>.",
">.>.>.>.>.>.>.>.>.& $ - i ..+.@.@.%.X.P b s 9 @ >.>.>.>.>.>.>.>.",
">.>.>.>.>.>.>.>.>.@ o , L o.%.@.@.@.$.) Z x g u >.>.>.>.>.>.>.>.",
">.>.>.>.>.>.>.>.>.t u A ( $.@.@.@.@.#.;.} ! G r * >.>.>.>.>.>.>.",
">.>.>.>.>.>.>.>.X 6 ` *.O.@.@.@.@.@.#.;.| ^ H f s >.>.>.>.>.>.>."
};
