/* XPM */
static char *xpm_[] = {
/* columns rows colors chars-per-pixel */
"32 32 35 1 ",
"  c #3D00BD",
". c #4201C3",
"X c #4603C4",
"o c #4D07C7",
"O c #520AC8",
"+ c #570DCA",
"@ c #5A0FCB",
"# c #6012CD",
"$ c #6414CE",
"% c #6917D0",
"& c #6F1BD2",
"* c #731DD4",
"= c #7F24D8",
"- c #8326D9",
"; c #892ADB",
": c #8D2CDD",
"> c #902EDE",
", c #9732E0",
"< c #9B34E2",
"1 c #9F37E3",
"2 c #A63AE5",
"3 c #B342EA",
"4 c #B845EC",
"5 c #C24BEF",
"6 c #CA4FF2",
"7 c #CE51F3",
"8 c #D957F7",
"9 c #DE5AF9",
"0 c #E35DFB",
"q c #EF64FF",
"w c #F068FE",
"e c #F47AF7",
"r c #FB95EE",
"t c #F680F5",
"y c #FF00FF00",
/* pixels */
"yyyyyyyyyyyyyyyyyyyyyyyyyyyyyyyy",
"yyyyyyyyyyyyyyyyyyyyyyyyyyyyyyyy",
"yyyyyyyyyyyyyyyyyyyyyyyyyyyyyyyy",
"yyyyyyyyyyyyyyyyyyyyyyyyyyyyyyyy",
"yyyyyyyyyyyyyyyyyyyyyyyyyyyyyyyy",
"yyyyyyyyyy.@*34oyyyyyyyyyyyyyyyy",
"yyyyyyyyyy7re*yyyy .@.yyyyyyyyyy",
"yyyyyyyyy,rr7yyyyyyoeq=.yyyyyyyy",
"yyyyyyyy-rrr-yyyyyyywrrq.yyyyyyy",
"yyyyyyyy<;5wyyyyyyO50err=yyyyyyy",
"yyyyyyyyyy%eoyyyy.9,y%>*>Oyyyyyy",
"yyyyyyyyyy.q3y+*y;7yyyyy#,yyyyyy",
"yyyyyyyyyyyX4werwe;yyyyyy yyyyyy",
"yyyyy# yyyyy*rrrrr5Xyyyyyyyyyyyy",
"yyyyy<yyyyyX5rrrrrr-yyyyyyyyyyyy",
"yyyyy3$yyyy-rrrrrrr,yyyyy yyyyyy",
"yyyy+ee=yyy;rrrrrrre73Oyo$yyyyyy",
"yyyy%ere;@=6wrrrrre;$>3;53yyyyyy",
"yyyyy;rr009@y0rrr0*yyyy3r5yyyyyy",
"yyyyy.q0yyyyy$;50yyyyyy-r5yyyyyy",
"yyyyyyO:yyyyyyy%7yyyyyy1r-yyyyyy",
"yyyyyyyy yyyyyy@wyyyyyy-,yyyyyyy",
"yyyyyyyyXyyyyyy@3yyyyyX>yyyyyyyy",
"yyyyyyyyy yyyyy;*yyyyy$&yyyyyyyy",
"yyyyyyyyyy-+y8we5$X yyyyyyyyyyyy",
"yyyyyyyyyy.$2trrr,yyyyyyyyyyyyyy",
"yyyyyyyyyyyyy->$Oyyyyyyyyyyyyyyy",
"yyyyyyyyyyyyyyyyyyyyyyyyyyyyyyyy",
"yyyyyyyyyyyyyyyyyyyyyyyyyyyyyyyy",
"yyyyyyyyyyyyyyyyyyyyyyyyyyyyyyyy",
"yyyyyyyyyyyyyyyyyyyyyyyyyyyyyyyy",
"yyyyyyyyyyyyyyyyyyyyyyyyyyyyyyyy"
};
