/* XPM */
static char *f80d905cfa134d6787b3ab04d26f20bb0Wi3rmwH28Ns5eEA[] = {
/* columns rows colors chars-per-pixel */
"32 32 123 2 ",
"   c black",
".  c #000001",
"X  c #000002",
"o  c #010002",
"O  c #010102",
"+  c #010103",
"@  c #020104",
"#  c #020204",
"$  c #020205",
"%  c #030205",
"&  c #030206",
"*  c #030306",
"=  c #030307",
"-  c #040206",
";  c #040306",
":  c #040307",
">  c #040208",
",  c #040308",
"<  c #050308",
"1  c #050209",
"2  c #05020A",
"3  c #05030A",
"4  c #06030A",
"5  c #06030B",
"6  c #050408",
"7  c #060409",
"8  c #06040A",
"9  c #07050B",
"0  c #06030C",
"q  c #07030C",
"w  c #06040C",
"e  c #07040C",
"r  c #07050C",
"t  c #07040D",
"y  c #08040D",
"u  c #08040E",
"i  c #08050E",
"p  c #09050E",
"a  c #08050F",
"s  c #09050F",
"d  c #090510",
"f  c #0A0611",
"g  c #0B0713",
"h  c #0D0A17",
"j  c #0D0A18",
"k  c #0E0A18",
"l  c #0E0A19",
"z  c #0E0B19",
"x  c #0E0B1A",
"c  c #0F0B1A",
"v  c #0F0B1B",
"b  c #0F0C1B",
"n  c #100C1B",
"m  c #100C1C",
"M  c #100C1D",
"N  c #110C1D",
"B  c #110D1D",
"V  c #110D1E",
"C  c #120D1E",
"Z  c #120D1F",
"A  c #130D1F",
"S  c #120E1F",
"D  c #130E1F",
"F  c #120E20",
"G  c #130E20",
"H  c #130E21",
"J  c #130F21",
"K  c #140E21",
"L  c #140F21",
"P  c #140F22",
"I  c #150F22",
"U  c #150F23",
"Y  c #151023",
"T  c #161023",
"R  c #221A36",
"E  c #231A36",
"W  c #221B36",
"Q  c #231B36",
"!  c #231B37",
"~  c #231B38",
"^  c #241B38",
"/  c #241C38",
"(  c #241C39",
")  c #251C39",
"_  c #251C3A",
"`  c #251D3A",
"'  c #251D3B",
"]  c #261D3B",
"[  c #261D3C",
"{  c #271D3C",
"}  c #261E3C",
"|  c #271E3C",
" . c #271E3D",
".. c #271E3E",
"X. c #281E3E",
"o. c #281F3F",
"O. c #291F3F",
"+. c #291F40",
"@. c #2A1F40",
"#. c #2A2041",
"$. c #34224A",
"%. c #34224B",
"&. c #34234B",
"*. c #35234B",
"=. c #35234C",
"-. c #35234D",
";. c #36234D",
":. c #36244D",
">. c #36244E",
",. c #37244E",
"<. c #37254F",
"1. c #38254F",
"2. c #372550",
"3. c #382550",
"4. c #382551",
"5. c #392551",
"6. c #392651",
"7. c #392652",
"8. c #3A2652",
"9. c #3A2753",
"0. c #3B2754",
"q. c #3B2755",
"w. c #3C2856",
/* pixels */
"5 5 X X X X X X X X 5 q n n r 5 X % 9.q.@.] s 5 5 s ] X.q.q.X.{ ",
"5 5 X X X X X X X X 5 r v v q 5 % 8 ;.9.{ Q s 5 r f ] @.<.<.] ] ",
"5 5 X X 5 5 v v X X v v r 5 X % $.<.P B s s 5 s Q { 9.9.Y B s s ",
"5 5 X X s f B B % % v v q 5 % 8 1.9.B v r 5 5 s ^ X.9.<.B h 5 5 ",
"X X X % $.9.9.<.{ Q % X 5 s Q ] X.{ B n B v X X B F X.{ ; X 5 q ",
"X X % r <.q.9.2.X.~ 5 % 5 s ] { ] Q B b n v X X v B ] Q % X 5 5 ",
"X ; $.<.@.{ P B B F ] ^ s q B B s s B b % X X X 5 s B B r 5 X X ",
"X ; <.9.{ ~ B v v B ] ~ r 5 v v 5 5 v v X X X X 5 q v v q 5 X X ",
"X % ] X.F B B B B b % % X X X X X X X X X X 5 5 5 5 r q X X 5 5 ",
"X % ~ ] B v v v b v % X X X X X X X X X % ; s s 5 5 5 5 X X 5 5 ",
"v v B B B v % X X X v v 5 5 5 5 5 5 5 s $.<.{ Q s 5 q 5 X X X X ",
"B B n b n v % X % % B B f s s s 5 5 5 s <.9.{ Q s 5 5 5 X X X X ",
"B B B B r r v B Q { <.9.9.<.{ Q s 5 X % { { 8 % 5 5 X X X X 5 5 ",
"v v v v r r B P ] X.9.9.9.<.X.^ s 5 X % Q Q X X 5 5 ; ; % % 5 5 ",
"r r X % v B <.<.P B F B ; ; B B X X X X % % X X X % $.<.{ Q % X ",
"5 5 X X B Y 9.9.B v B v X X B B % % X X X X X X X 8 <.9.X.~ % X ",
"X X X ; ;.9.#.{ B B B B v B ] ] ] Q s 5 X X X % Q ] P B B B v v ",
"% % X 5 $.<.] Q B n v n B F ] { { ] s 5 X X X % ^ ] B v v v n B ",
"] ~ B v 5 % % % b B r s ] { { ] F B r 5 X X v v s s B B r r 5 5 ",
"{ ] B v X X X X v v 5 s Q ] ] ] B v r 5 X X v v q q v v 5 5 s s ",
"B B r 5 5 5 X X 5 q 5 q s s B B r q 5 5 X X X X v v r 5 X % Q ] ",
"v v r q q 5 X X 5 q 5 5 5 5 v v q 5 f s ; ; % % b B r 5 X % ^ { ",
"X % v v 5 5 5 5 v v X X 5 r n B 5 s $.9.9.<.{ ~ B n v v v v B B ",
"X X B B f s r r v v % X 5 r b B s f 9.w.9.9.{ ^ B B F B B B v v ",
"5 s ;.9.9.;.B v % % v b n B n B ~ { q.9.Y B s s v F <.<.B v s r ",
"r f <.q.9.<.B v X X v B v b n B ] { 9.<.B v 5 5 v B <.<.P B r 5 ",
"] ] X.{ P B s q 5 5 r 5 X X v B B B F B r q q 5 r r % 8 ] ] s 5 ",
"] ] { ] B v q 5 r r 5 5 % % v n v v b v r 5 5 5 5 5 X X Q ^ s 5 ",
"X 5 ] { f q 5 q v v 5 s ~ Q s 5 q r B B B v X X 5 5 X X % % 5 5 ",
"X % Q ^ r 5 q r v v 5 s ] ] f r q r v v B v X X 5 5 X X X X 5 5 ",
"v v s s X X v v % X 5 r B F ] ^ B v % X q r 5 5 5 5 5 5 5 5 5 5 ",
"B n 5 5 X X b b X X 5 r v B { { B v X X 5 5 5 5 5 5 5 5 5 5 5 5 "
};
