/* XPM */
static char *_dea6a71d29b409390f1d5c10ecb96b54mLtLLaaqoyU0kqi[] = {
/* columns rows colors chars-per-pixel */
"32 32 21 1 ",
"  c #686868",
". c DimGray",
"X c #6A6A6A",
"o c gray42",
"O c #727272",
"+ c gray45",
"@ c #747474",
"# c gray46",
"$ c #767676",
"% c #777777",
"& c gray49",
"* c #7E7E7E",
"= c gray50",
"- c #808080",
"; c #818181",
": c #8B8B8B",
"> c gray55",
", c #8D8D8D",
"< c #8E8E8E",
"1 c gray56",
"2 c #909090",
/* pixels */
"11111121-&@@@@&&@+XX+@@@&-&&---&",
"11111111&&@@@@&&@@XX@@+@&&&&-&&&",
"----@@--@@&&&&&&&&&&&&XXXX@@&&@@",
"&&&&++&&@@&&&&&&&&&&&&XXXX@@&&@@",
"&&@@XXXX+@@@@@XX@@@@@@&&&&&&--&&",
"&&@@oXXX@@@@@@XX@@@@@@&-&&&&&&&&",
"&&&&1111&&11&&&-1111&&&&&&@@@@@@",
"&&&-1111&&11-&&-1111-----&@@@@@@",
"@@&&-&@@@@@@&&@@&-12111111@@&&&&",
"@@&-&&@@@@@@&&@@&-11111111@@&&--",
"&&11-&&&&&&&-&&&&&@@@@XX@@XX+@12",
"&&11-&------&&---&@+@+XX@@XX+@12",
"@@&-&-111111@@1111@+@@@@&&&&&&--",
"@@&&&&11111:@@1111@@@@@@&&&&&&&&",
"@@@@XXXX@@XX+@@@&-&&@@@@@@&&&&&&",
"@@@@XXXX@@XX@@@@&--&@@@@@@&&&&&&",
"111111&&11&&&&111111&&&&&&&&&&@@",
"111121--11-&--121111-&-------&@@",
"----11-&--&-111121--&-11111111-&",
"&&&-11-&&&&&111111-&&&11111111-&",
"Xo&&@@&&@@@@XXXo@@-&@@&--&@@@@@@",
"XX&-@@&&@@@@XXXX@@&&@@&&-&@@@@@@",
"&&--&&&&&&1111-&--&&&&&-1111-&11",
"&&&&&&&&&-1211-&-&&&&&&&1111&&11",
"&&@@@@@@&-11--@@@@&&-&XXXX@@XX@@",
"-&@@@@@@&&11-&@@@@&&&&oXXX++XX@@",
"1111-&@@@@&-&&@@@@@@&&&&@+@@+@11",
"1111-&@@@@&&&&@@@@@@&&&&@@@@@@12",
"-&@@@@&&&&&---&&&&&&&&&-11111111",
"&&@@@@&&&&&&&&&&&&----&-11111111",
"&&&&&&&&&&-&@@@@&-1111-&-&@@&---",
"&&&&--&&&&&&@@@@&-1221-&&&@@&&&&"
};
