/* XPM */
static char *xpm_[] = {
/* columns rows colors chars-per-pixel */
"32 32 24 1 ",
"  c #3C00BC",
". c #4000C1",
"X c #4603C4",
"o c #4D07C7",
"O c #530BC9",
"+ c #5D11CC",
"@ c #6414CE",
"# c #6F1BD2",
"$ c #731DD4",
"% c #7920D6",
"& c #8025D8",
"* c #8728DB",
"= c #A137E4",
"- c #AD3EE8",
"; c #B845EC",
": c #BC47ED",
"> c #C24BEF",
", c #CE51F3",
"< c #D153F5",
"1 c #E35DFB",
"2 c #EF64FF",
"3 c #F47AF7",
"4 c #FB95EE",
"5 c #FF00FF00",
/* pixels */
"55555555555555555555555555555555",
"55555555555555555555555555555555",
"55555555555555555555555555555555",
"55555555555555555555555555555555",
"55555555555555555555555555555555",
"55555555555@55555555555555555555",
"55555555555555555555555555555555",
"55555555555555555555555555555555",
"55555555555555555555555.X5555555",
"555555555555555555.o555 o5555555",
"55555555555 55555o<X555555555555",
"55555555555.o5555+#5555555555555",
"555555555555+5555O55555555555555",
"555555555555O#&&-%55555555555555",
"5555 55555555@444,5.555555555555",
"5555X55555555$4443@5555555555555",
"5555@55555555,4443$X#;#555555555",
"5555.+5555+O+#>4>+555&#555555555",
"55555oO55=2+55@=+5+.55555O555555",
"55555.$55..55@O5.5+.55555@555555",
"555555.555555.55O5555555O*555555",
"5555555555555555O5555555.$555555",
"55555555555555555555555555555555",
"55555555555555555555555555555555",
"55555555555555555555555555555555",
"5555555555 .oX++O 55555555555555",
"555555555555O:1>&555555555555555",
"55555555555555555555555555555555",
"55555555555555555555555555555555",
"55555555555555555555555555555555",
"55555555555555555555555555555555",
"55555555555555555555555555555555"
};
