/* XPM */
static char *xpm_[] = {
/* columns rows colors chars-per-pixel */
"32 32 26 1 ",
"  c #3C00BC",
". c #4805C5",
"X c #530BC9",
"o c #5A0FCB",
"O c #5F11CD",
"+ c #6515CF",
"@ c #7920D6",
"# c #7D23D7",
"$ c #8326D9",
"% c #8728DB",
"& c #902EDE",
"* c #9732E0",
"= c #A137E4",
"- c #A63AE5",
"; c #AD3EE8",
": c #BC47ED",
"> c #C24BEF",
", c #CE51F3",
"< c #DE5AF9",
"1 c #E35DFB",
"2 c #EF64FF",
"3 c #F068FE",
"4 c #F476F9",
"5 c #FB95EE",
"6 c #F783F4",
"7 c #FF00FF00",
/* pixels */
"77777777777777777777777777777777",
"77777777777777777777777777777777",
"77777777777777777777777777777777",
"77777777777777777777777777777777",
"77777777777777777777777777777777",
"77777777777777777777777777777777",
"777777777777.7777777777777777777",
"77777777777*6@777777777777777777",
"7777777777X554,;X7.77.7777777777",
"7777777777+55555436116*777777777",
"7777777777;55555555555<.77777777",
"777777777O555555555555%777777777",
"77777777.>555555555555&777777777",
"77777777&5555555555555>777777777",
"77777777154=>555555555>777777777",
"777777.,5537=5555555551777777777",
"777777=5555345555555555X77777777",
"777777+5555555555534555#77777777",
"7777777o;5555555537=5552.7777777",
"777777777-45555554=>5555X7777777",
"7777777777%55555555551>$77777777",
"7777777777.25555551>$77777777777",
"77777777777.>5555,77777777777777",
"777777777777+55>+.77777777777777",
"777777777777.:4+7777777777777777",
"77777777777777. 7777777777777777",
"77777777777777777777777777777777",
"77777777777777777777777777777777",
"77777777777777777777777777777777",
"77777777777777777777777777777777",
"77777777777777777777777777777777",
"77777777777777777777777777777777"
};
