/* XPM */
static char *tile0001719851909[] = {
/* columns rows colors chars-per-pixel */
"32 32 17 1 ",
"  c #FF00FF00",
". c #4E4E4E",
"X c #73747B",
"o c #7E7E7E",
"O c #97989C",
"+ c #9B9B9B",
"@ c #9597A1",
"# c #A4A4A8",
"$ c #ABACAF",
"% c #AEAFB6",
"& c #B8B9BB",
"* c gray79",
"= c #D0D0D0",
"- c gray82",
"; c #D2D1D1",
": c gray84",
"> c gray87",
/* pixels */
"                                ",
"            .....ooo            ",
"         ....XXXO&&ooo.         ",
"        ..XXX**===:&&#..        ",
"      ...X****=====:=*X...      ",
"     ..XX****OOOOOX****XX..     ",
"    ..X****OO%%%%@@XX****Xoo    ",
"    .X***XO%%%%%@@@@@XX*==Oo    ",
"   ..X**X%%%%%%@@@@@@@@O==O..   ",
"  ..X**X%%%%%%@@@@@@@@%%O=*X..  ",
"  .X***O%%%%>>*@***@@%%%X***X.  ",
"  .X**O%%%%>>*@>>>>>%%%@@X**O+  ",
" ..X==O%%%*>*@@*>*=>>%@@@X*=%++ ",
" .X==O%%%@>**>@@@%===*@@@@O==$+ ",
" .O==O%%@@**>@@>>%%=*@*@%%O==$+ ",
" oO==O%@@>>*@@>%%=@@*@*%%%O==$+ ",
" oO==X@@@*>X>O%%=*XX@*>%%%O==O+ ",
" oO=*X@@@XX*>OO=*XX>>>>%%%O==Oo ",
" oO**X@@@X>=>>OXXX*>>>O%%%O==Oo ",
" o.X**X@@XO==>>>>X>==OO%%O==Ooo ",
"  .X**X@%%OO****=O===OO%%O==Oo  ",
"  .X***O%%%XX**=OOO=OO%%O===O.  ",
"  ..X*=O%%@@XXOOOOOOO%%%O==O..  ",
"   ..O==X@@@%OOOOOO%%%%O==X..   ",
"    oO=**XX%%%%%%%%%%OO==*X.    ",
"    ooX***=OO%%%%%%OO===*X..    ",
"     ..XO====OOOOOO===*XX..     ",
"      .ooO===========*X...      ",
"        ooOOO======OXX..        ",
"         ooooOOOOOX....         ",
"            ooooo...            ",
"                                "
};
