/* XPM */
static char *xpm_[] = {
/* columns rows colors chars-per-pixel */
"32 32 22 1 ",
"  c #3F00C0",
". c #4201C3",
"X c #4603C4",
"o c #510AC8",
"O c #5A0FCB",
"+ c #6414CE",
"@ c #6917D0",
"# c #751ED4",
"$ c #7B22D7",
"% c #8025D8",
"& c #892ADB",
"* c #902EDE",
"= c #9832E1",
"- c #B141E9",
"; c #C24BEF",
": c #CE51F3",
"> c #DE5AF9",
", c #EF64FF",
"< c #F16CFC",
"1 c #F47AF7",
"2 c #FB95EE",
"3 c #FF00FF00",
/* pixels */
"33333333333333333333333333333333",
"33333333333333333333333333333333",
"33333333333333333333333333333333",
"33333333333333333333333333333333",
"33333333333333333333333333333333",
"33333333333333333333333333333333",
"33333333333333333333333333333333",
"33333333333333333333333333333333",
"33333333333333333333333333333333",
"33333333333333333333333333333333",
"33333333333333333333333333333333",
"3333333333333 33X#33333333333333",
"333333333333%>$@;2#3333333333333",
"333333333333*22222#3333333333333",
"333333333333+22222$3333333333333",
"333333333333&22222,$ 33333333333",
"33333333333@12222222O33333333333",
"33333333333#1<2221:-.33333333333",
"33333333333 X3=22&33333333333333",
"333333333333333:2o33333333333333",
"333333333333333.o333333333333333",
"33333333333333333333333333333333",
"33333333333333333333333333333333",
"33333333333333333333333333333333",
"33333333333333333333333333333333",
"33333333333333333333333333333333",
"33333333333333333333333333333333",
"33333333333333333333333333333333",
"33333333333333333333333333333333",
"33333333333333333333333333333333",
"33333333333333333333333333333333",
"33333333333333333333333333333333"
};
