/* XPM */
static char *xpm_[] = {
/* columns rows colors chars-per-pixel */
"32 32 17 1 ",
"  c #3C00BC",
". c #3F00C0",
"X c #4201C3",
"o c #4603C4",
"O c #4B06C6",
"+ c #570DCA",
"@ c #5A0FCB",
"# c #6414CE",
"$ c #6B19D1",
"% c #8225D9",
"& c #8A2ADC",
"* c #902EDE",
"= c #AD3EE8",
"- c #C24BEF",
"; c #EA61FD",
": c #FB95EE",
"> c #FF00FF00",
/* pixels */
">>>>>>>>>>>>>>>>>>>>>>>>>>>>>>>>",
">>>>>>>>>>>>>>>>>>>>>>>>>>>>>>>>",
">>>>>>>>>>>>>>>>>>>>>>>>>>>>>>>>",
">>>>>>>>>>>>>>>>>>>>>>>>>>>>>>>>",
">>>>>>>>>>>>>>>>>>>>>>>>>>>>>>>>",
">>>>>>>>>>X+>>>>>>>>>>>>>>>>>>>>",
">>>>>>>>>>@>>>>>>>>>>>>>>>>>>>>>",
">>>>>>>>>>>>>>>>>>>>>>>>>>>>>>>>",
">>>>>>>>>>>>>>>>>>>>>>>>>>>>>>>>",
">>>>>>>>>>>>>>>>>>>>>>>>O>>>>>>>",
">>>>>>>>>>>>>>> >>>>>>>>>>>>>>>>",
">>>>>>>>>>>+>>>>>>>>>>>>>>>>>>>>",
">>>>>>>>>>>>X>>>>O>>>>>>>>>>>>>>",
">>>>>>>>>>>>>.>>>>>>>>>>>>>>>>>>",
">>>>>>>>>> >>>&-%O>>>>>>>>>>>>>>",
">>>>>>>>>>>>>>-::+>>>>>>>>>>>>>>",
">>>> >>>>>>>>>=:;X>+*>>>>>>>>>>>",
">>>>X#>>>>>oo>>+X>>>OX>>>>>>>>>>",
">>>>>$>>>>%O>>O>>>>>>>>>>>>>>>>>",
">>>>>OX>>>>>>>O> > >>>>>>>>>>>>>",
">>>>>>.>>>>>>>>>+>>>>>>>>O>>>>>>",
">>>>>>>>>>>>>>>>>>>>>>>>>O>>>>>>",
">>>>>>>>>>>>>>>>>>>>>>>>>>>>>>>>",
">>>>>>>>>>>>>>>>>>>>>>>>>>>>>>>>",
">>>>>>>>>>>>>>>>>>>>>>>>>>>>>>>>",
">>>>>>>>>>>>>>>>>>>>>>>>>>>>>>>>",
">>>>>>>>>>>> +=*+>>>>>>>>>>>>>>>",
">>>>>>>>>>>>>>>>>>>>>>>>>>>>>>>>",
">>>>>>>>>>>>>>>>>>>>>>>>>>>>>>>>",
">>>>>>>>>>>>>>>>>>>>>>>>>>>>>>>>",
">>>>>>>>>>>>>>>>>>>>>>>>>>>>>>>>",
">>>>>>>>>>>>>>>>>>>>>>>>>>>>>>>>"
};
