/* XPM */
static char *xpm_[] = {
/* columns rows colors chars-per-pixel */
"32 32 23 1 ",
"  c #4201C3",
". c #4603C4",
"X c #4B06C6",
"o c #530BC9",
"O c #5A0FCB",
"+ c #5F11CD",
"@ c #6414CE",
"# c #6B19D1",
"$ c #6F1BD2",
"% c #731DD4",
"& c #8326D9",
"* c #9832E1",
"= c #9B34E2",
"- c #B141E9",
"; c #BF48EE",
": c #C24BEF",
"> c #CE51F3",
", c #DA58F8",
"< c #E05CFA",
"1 c #F068FE",
"2 c #F476F9",
"3 c #FB95EE",
"4 c #FF00FF00",
/* pixels */
"44444444444444444444444444444444",
"44444444444444444444444444444444",
"44444444444444444444444444444444",
"44444444444444444444444444444444",
"44444444444444444444444444444444",
"44444444444444444444444444444444",
"44444444444444444444444444444444",
"44444444444444444444444444444444",
"444444444444&-.4444 444444444444",
"4444444444@<33:#.4$,*44444444444",
"4444444444%3333321333> 444444444",
"4444444444O33333333333o444444444",
"4444444444%3333333333-4444444444",
"4444444444>3333333333&4444444444",
"444444444%33333333333-4444444444",
"4444444 ;233333333333<4444444444",
"4444444o33333333333333*444444444",
"44444444<33333333333333o44444444",
"44444444-33333333333332.44444444",
"44444444 O@-3333333333;444444444",
"444444444444-333332=$&X444444444",
"444444444444@3333:X4444444444444",
"444444444444o3333+44444444444444",
"4444444444444&::&444444444444444",
"44444444444444444444444444444444",
"44444444444444444444444444444444",
"44444444444444444444444444444444",
"44444444444444444444444444444444",
"44444444444444444444444444444444",
"44444444444444444444444444444444",
"44444444444444444444444444444444",
"44444444444444444444444444444444"
};
