/* XPM */
static char *xpm_[] = {
/* columns rows colors chars-per-pixel */
"32 32 30 1 ",
"  c #4805C5",
". c #4D07C7",
"X c #510AC8",
"o c #550CC9",
"O c #5A0FCB",
"+ c #6012CD",
"@ c #6414CE",
"# c #6917D0",
"$ c #6F1BD2",
"% c #751ED4",
"& c #7F24D8",
"* c #8326D9",
"= c #892ADB",
"- c #8A2ADC",
"; c #932FDF",
": c #9732E0",
"> c #9B34E2",
", c #A137E4",
"< c #B141E9",
"1 c #BF48EE",
"2 c #C24BEF",
"3 c #CE51F3",
"4 c #DA58F8",
"5 c #E75FFC",
"6 c #EF64FF",
"7 c #F16CFC",
"8 c #F47AF7",
"9 c #FB95EE",
"0 c #F783F4",
"q c #FF00FF00",
/* pixels */
"qqqqqqqqqqqqqqqqqqqqqqqqqqqqqqqq",
"qqqqqqqqqqqqqqqqqqqqqqqqqqqqqqqq",
"qqqqqqqqqqqqqqqqqqqqqqqqqqqqqqqq",
"qqqqqqqqqqqqqqqqqqqqqqqqqqqqqqqq",
"qqqqqqqqqqqqqqqqqqqqqqqqqqqqqqqq",
"qqqqqqqqqqqqqqqqqqqqqqqqqqqqqqqq",
"qqqqqqqqqq%2237;.XXqqqqqqqqqqqqq",
"qqqqqqqqq.8992# q.,4;@Xqqqqqqqqq",
"qqqqqqqqq<999%qqqqq7999*qqqqqqqq",
"qqqqqqqq#9999;qqqqO89992qqqqqqqq",
"qqqqqqqq,&=895qqq 699995qqqqqqqq",
"qqqqqqqXoqq=993oq<996=<0*qqqqqqq",
"qqqqqq *qqqq39987998Oqq:=qqqqqqq",
"qqqqqq<2qqqq*999999>qqqq@qqqqqqq",
"qqqqqq23qqqq<999998.qqqq$qqqqqqq",
"qqqqqq58=O%39999997qqqqq=qqqqqqq",
"qqqqq*999999999999952<%=4 qqqqqq",
"qqqqq<9999997899999999999Oqqqqqq",
"qqqqq 2995<#q=99952389999Oqqqqqq",
"qqqqqq.85qqqq 895qqq.2999Oqqqqqq",
"qqqqqqq=4qqqqq493qqqq#999Xqqqqqq",
"qqqqqqqq-#qqq 897qqqq&8=Xqqqqqqq",
"qqqqqqqqq+# q=997qqqX4=qqqqqqqqq",
"qqqqqqqqqq1848998=O++Xqqqqqqqqqq",
"qqqqqqqqqq ;599999< qqqqqqqqqqqq",
"qqqqqqqqqqqqq:96&Xqqqqqqqqqqqqqq",
"qqqqqqqqqqqqqqX qqqqqqqqqqqqqqqq",
"qqqqqqqqqqqqqqqqqqqqqqqqqqqqqqqq",
"qqqqqqqqqqqqqqqqqqqqqqqqqqqqqqqq",
"qqqqqqqqqqqqqqqqqqqqqqqqqqqqqqqq",
"qqqqqqqqqqqqqqqqqqqqqqqqqqqqqqqq",
"qqqqqqqqqqqqqqqqqqqqqqqqqqqqqqqq"
};
