/* XPM */
static char *ba147013798c4dbdd55f4a796df6c080WvjiB0b4Apa9mNbU[] = {
/* columns rows colors chars-per-pixel */
"32 32 6 1 ",
"  c None",
". c black",
"X c #430043",
"o c #950095",
"O c #BC00BC",
"+ c white",
/* pixels */
"                                ",
"                                ",
"                                ",
"                                ",
"                                ",
"                                ",
"                                ",
"             XXXXXXX            ",
"            XOOOOOOoX           ",
"           XOXXXXOOOoX          ",
"          XOX....XOOOoX         ",
"         XOX......XOOoX         ",
"         XOX......XOOooX        ",
"         XOX+...+.XOooooX       ",
"         XOX+...+.XOoXooX       ",
"         XoX......XOoXXX        ",
"         XoX.....XOooX          ",
"          XoX...XoooXX          ",
"          XXoXXXooXXOoX         ",
"          XoOOOOOOOOOooX        ",
"          XOOOOOOOOOOOoX        ",
"          XOOOOOOOOOOOooX       ",
"          XOOOOoOOOOOOOoX       ",
"          XoOOoXoOOOOOOooX      ",
"          XoOooXooOoOOoooX      ",
"          XooOoXXooOoOOoX       ",
"          XooooX.XoooooX        ",
"           XoXX...XoXoX         ",
"            XX.  ..X X          ",
"             ..  ..             ",
"               . .              ",
"                ..              "
};
