/* XPM */
static char *xpm_[] = {
/* columns rows colors chars-per-pixel */
"32 32 6 1 ",
"  c black",
". c #430043",
"X c #960096",
"o c #BD00BD",
"O c white",
"+ c #FF00FF00",
/* pixels */
"++++++++++++++++++++++++++++++++",
"++++++++++++++++++++++++++++++++",
"++++++++++++++++++++++++++++++++",
"++++++++++++++++++++++++++++++++",
"++++++++++++++++++++++++++++++++",
"++++++++++++++++++++++++++++++++",
"+++++++++++.......++++++++++++++",
"++++++++++.Xoooooo.+++++++++++++",
"+++++++++.Xooo....o.++++++++++++",
"++++++++.Xooo.    .o.+++++++++++",
"++++++++.Xoo.      .o.++++++++++",
"+++++++.XXoo.      .o.++++++++++",
"++++++.XXXXo.      .o.++++++++++",
"++++++.XX.Xo. O   O.o.++++++++++",
"+++++++...Xo.      .X.++++++++++",
"+++++++++.XXo.     .X.++++++++++",
"++++++++++.XXX.   .X.+++++++++++",
"+++++++++++..XX...X.++++++++++++",
"++++++++++.XXXoooooX.+++++++++++",
"+++++++++.XoooooooooX.++++++++++",
"+++++++++.XoooooooooX.++++++++++",
"+++++++++X+oooooooooo.++++++++++",
"++++++++.Xooooooooooo.++++++++++",
"+++++++.XXooooooXooo+X++++++++++",
"++++++.X+Xo+ooooXooooX.+++++++++",
"++++++.++XoooooX.+ooXX+.++++++++",
"+++++++XXXXoXo+X+XXo+XX.++++++++",
"++++++.+X+X+oXX. .+XXX+.++++++++",
"+++++++.X.XX+X.+ .XX+.++++++++++",
"++++++++.+.+... ++...+.+++++++++",
"++++++++++++++ ++++ ++++++++++++",
"++++++++++++++++++ +++++++++++++"
};
