/* XPM */
static char *_7fb01f69f9b415e893f0ae68e7d23cdBUP1lB9l7WEP1qUV[] = {
/* columns rows colors chars-per-pixel */
"32 32 6 1 ",
"  c None",
". c black",
"X c #430043",
"o c #950095",
"O c #BC00BC",
"+ c white",
/* pixels */
"                                ",
"                                ",
"                                ",
"                                ",
"             XXXXXXX            ",
"            XOOOOOOoX           ",
"           XOXXXXOOOoX          ",
"          XOX....XOOOoX         ",
"         XOX......XOOoX         ",
"         XOX......XOOooX        ",
"         XOX+...+.XOoooX        ",
"         XOX+...+.XOoXoX        ",
"         XoX......XOoXoX        ",
"         XoX.....XOooXX         ",
"          XoX...XoooX           ",
"           XoXXXooXXX           ",
"          XoOOOOOOOOoX          ",
"          XoOOOOOOOOOoX         ",
"          XoOOOOOOOOOoX         ",
"          XOOOOOOOOOOOX         ",
"          XOOOOOOOOOOOoX        ",
"         XoOOOOoOOOOOOoX        ",
"         XooOOoXoOOOOOoX        ",
"         XooOooXooOoOoooX       ",
"         XooooX.XooOooooX       ",
"         XoXooX..XooooXoX       ",
"          XooX...XooXoXX        ",
"           XXX.  XXX XX         ",
"             ..   ..            ",
"             .      ..          ",
"             .                  ",
"             .                  "
};
