/* XPM */
static char *xpm_[] = {
/* columns rows colors chars-per-pixel */
"32 32 4 1 ",
"  c #470047",
". c #970097",
"X c #BF00BF",
"o c #FF00FF00",
/* pixels */
"oooooooooooooooooooooooooooooooo",
"oooooooooooooooooooooooooooooooo",
"oooooooooooooooooooooooooooooooo",
"oooooooooooooooooooooooooooooooo",
"oooooooooooooooooooooooooooooooo",
"oooooooooooooooooooooooooooooooo",
"oooooooooooooooooooooooooooooooo",
"oooooooooooooooooooooooooooooooo",
"ooooooooooo  o    oooooooooooooo",
"ooooooooooo.ooXXXX ooooooooooooo",
"ooooooooo .ooX    X oooooooooooo",
"oooooooo .oXX oooo X ooooooooooo",
"oooooooo .oXooooooo oooooooooooo",
"ooooooooo.oXooooooo X oooooooooo",
"oooooo .o.oo oooooo X oooooooooo",
"oooooooooo.oooooooo oooooooooooo",
"ooooooo o .oooooooo o oooooooooo",
"ooooooooo .oXoooooo . oooooooooo",
"oooooooooo .o. ooo .oooooooooooo",
"ooooooooooo  ..  o.ooooooooooooo",
"ooooooooo oXXXoXXoXXoooooooooooo",
"oooooooooo.XoXXoXooXoooooooooooo",
"oooooooo oooooooXXooXooooooooooo",
"oooooooo.oXoXooX.ooXo.oooooooooo",
"oooooo .oooooooXooXXX. ooooooooo",
"oooooo oooXooXoo oXX.oo oooooooo",
"ooooooo..ooooooooooXo.o oooooooo",
"oooooo oooooXoo ooo.oooooooooooo",
"oooooooooooooooooooooooooooooooo",
"oooooooooo ooooooooooooooooooooo",
"oooooooooooooooooooooooooooooooo",
"oooooooooooooooooooooooooooooooo"
};
