/* XPM */
static char *_abf1e734e82450a9d116029c613c36cOKiueTa7GeBCP4g6[] = {
/* columns rows colors chars-per-pixel */
"32 32 6 1 ",
"  c None",
". c black",
"X c #430043",
"o c #950095",
"O c #BC00BC",
"+ c white",
/* pixels */
"                                ",
"                                ",
"                                ",
"                                ",
"                                ",
"             XXXXXXX            ",
"            XOOOOOOoX           ",
"           XOXXXXOOOoX          ",
"          XOX....XOOOoX         ",
"         XOX......XOOoX         ",
"         XOX......XOOooX        ",
"         XOX+...+.XOoooX        ",
"         XOX+...+.XOoXoX        ",
"         XoX......XOoXX         ",
"         XoX.....XOooX          ",
"          XoX...XoooX           ",
"           XoXXXooXXoX          ",
"          XoOOOOOOOOOoX         ",
"          XoOOOOOOOOOoX         ",
"          XOOOOOOOOOOOoX        ",
"          XOOOOOOOOOOOoX        ",
"         XoOOOOoOOOOOOoX        ",
"         XooOOoXoOOOOOooX       ",
"         XooOooXooOoOoooX       ",
"          XoooX.XooOooooX       ",
"          XXooX..XooooXoX       ",
"          XooX...XooXXXX        ",
"           XXX...XXX            ",
"              ....              ",
"               ..               ",
"               . .              ",
"               .                "
};
